<svg width="174" height="22" viewBox="0 0 174 22" fill="none" xmlns="http://www.w3.org/2000/svg">
<path d="M9.038 17.43C9.66333 17.43 10.172 17.3507 10.564 17.192C10.9653 17.0333 11.278 16.828 11.502 16.576C11.726 16.324 11.88 16.0393 11.964 15.722C12.048 15.4047 12.09 15.0827 12.09 14.756C12.09 14.3827 12.0387 14.0467 11.936 13.748C11.8427 13.4493 11.6747 13.1973 11.432 12.992C11.1987 12.7867 10.886 12.628 10.494 12.516C10.102 12.404 9.60733 12.348 9.01 12.348H5.706V17.43H9.038ZM5.706 4.144V9.184H8.17C8.69267 9.184 9.164 9.14667 9.584 9.072C10.004 8.99733 10.3587 8.86667 10.648 8.68C10.9467 8.49333 11.1707 8.23667 11.32 7.91C11.4787 7.58333 11.558 7.17267 11.558 6.678C11.558 6.19267 11.4973 5.79133 11.376 5.474C11.2547 5.14733 11.068 4.886 10.816 4.69C10.564 4.494 10.242 4.354 9.85 4.27C9.46733 4.186 9.01 4.144 8.478 4.144H5.706ZM8.478 0.602C9.88733 0.602 11.0867 0.732666 12.076 0.994C13.0653 1.25533 13.8727 1.624 14.498 2.1C15.1233 2.576 15.576 3.15467 15.856 3.836C16.1453 4.51733 16.29 5.278 16.29 6.118C16.29 6.57533 16.2247 7.01867 16.094 7.448C15.9633 7.868 15.758 8.26467 15.478 8.638C15.198 9.002 14.8387 9.338 14.4 9.646C13.9613 9.954 13.434 10.22 12.818 10.444C14.162 10.7707 15.156 11.298 15.8 12.026C16.444 12.754 16.766 13.6967 16.766 14.854C16.766 15.722 16.598 16.5293 16.262 17.276C15.926 18.0227 15.4313 18.676 14.778 19.236C14.134 19.7867 13.336 20.2207 12.384 20.538C11.432 20.846 10.3447 21 9.122 21H0.974V0.602H8.478ZM24.4918 4.242V9.002H30.9038V12.502H24.4918V17.36H32.8638V21H19.7318V0.602H32.8638V4.242H24.4918ZM58.7146 0.602V21H54.5426V9.268C54.5426 8.99733 54.5473 8.70333 54.5566 8.386C54.5753 8.06867 54.6033 7.74667 54.6406 7.42L49.2226 17.906C49.0546 18.2327 48.8259 18.48 48.5366 18.648C48.2566 18.816 47.9346 18.9 47.5706 18.9H46.9266C46.5626 18.9 46.2359 18.816 45.9466 18.648C45.6666 18.48 45.4426 18.2327 45.2746 17.906L39.8566 7.392C39.8846 7.728 39.9079 8.05933 39.9266 8.386C39.9453 8.70333 39.9546 8.99733 39.9546 9.268V21H35.7826V0.602H39.3946C39.5999 0.602 39.7773 0.606666 39.9266 0.615999C40.0853 0.625333 40.2253 0.653333 40.3466 0.699999C40.4679 0.746666 40.5753 0.821333 40.6686 0.924C40.7713 1.01733 40.8693 1.15267 40.9626 1.33L46.2126 11.676C46.3993 12.0307 46.5766 12.3993 46.7446 12.782C46.9219 13.1647 47.0899 13.5567 47.2486 13.958C47.4073 13.5473 47.5706 13.146 47.7386 12.754C47.9159 12.362 48.1026 11.9887 48.2986 11.634L53.5346 1.33C53.6279 1.15267 53.7213 1.01733 53.8146 0.924C53.9173 0.821333 54.0293 0.746666 54.1506 0.699999C54.2719 0.653333 54.4073 0.625333 54.5566 0.615999C54.7153 0.606666 54.8973 0.602 55.1026 0.602H58.7146ZM73.902 4.242V9.408H80.874V13.062H73.902V21H69.142V0.602H82.274V4.242H73.902ZM89.7613 21H85.0013V0.602H89.7613V21ZM105.989 17.22V21H93.6967V0.602H98.4287V17.22H105.989ZM113.14 8.862H113.896C114.596 8.862 115.1 8.64267 115.408 8.204L120 1.54C120.27 1.18533 120.56 0.942666 120.868 0.812C121.185 0.672 121.577 0.602 122.044 0.602H126.16L120.112 8.848C119.682 9.41733 119.22 9.828 118.726 10.08C119.08 10.2107 119.402 10.3927 119.692 10.626C119.981 10.8593 120.252 11.1627 120.504 11.536L126.664 21H122.436C122.165 21 121.932 20.9813 121.736 20.944C121.549 20.9067 121.386 20.8507 121.246 20.776C121.106 20.7013 120.984 20.6127 120.882 20.51C120.779 20.398 120.681 20.272 120.588 20.132L115.968 13.034C115.8 12.7727 115.585 12.5907 115.324 12.488C115.072 12.376 114.726 12.32 114.288 12.32H113.14V21H108.408V0.602H113.14V8.862ZM147.295 10.794C147.295 12.2687 147.038 13.6407 146.525 14.91C146.021 16.1793 145.307 17.2853 144.383 18.228C143.459 19.1613 142.343 19.894 141.037 20.426C139.739 20.958 138.297 21.224 136.711 21.224C135.124 21.224 133.677 20.958 132.371 20.426C131.064 19.894 129.944 19.1613 129.011 18.228C128.087 17.2853 127.368 16.1793 126.855 14.91C126.351 13.6407 126.099 12.2687 126.099 10.794C126.099 9.31933 126.351 7.94733 126.855 6.678C127.368 5.40867 128.087 4.30733 129.011 3.374C129.944 2.44067 131.064 1.708 132.371 1.176C133.677 0.643999 135.124 0.377999 136.711 0.377999C138.297 0.377999 139.739 0.648666 141.037 1.19C142.343 1.722 143.459 2.45467 144.383 3.388C145.307 4.32133 146.021 5.42267 146.525 6.692C147.038 7.96133 147.295 9.32867 147.295 10.794ZM142.451 10.794C142.451 9.786 142.32 8.88067 142.059 8.078C141.797 7.266 141.419 6.58 140.925 6.02C140.439 5.46 139.842 5.03067 139.133 4.732C138.423 4.43333 137.616 4.284 136.711 4.284C135.796 4.284 134.979 4.43333 134.261 4.732C133.551 5.03067 132.949 5.46 132.455 6.02C131.969 6.58 131.596 7.266 131.335 8.078C131.073 8.88067 130.943 9.786 130.943 10.794C130.943 11.8113 131.073 12.726 131.335 13.538C131.596 14.3407 131.969 15.022 132.455 15.582C132.949 16.142 133.551 16.5713 134.261 16.87C134.979 17.1593 135.796 17.304 136.711 17.304C137.616 17.304 138.423 17.1593 139.133 16.87C139.842 16.5713 140.439 16.142 140.925 15.582C141.419 15.022 141.797 14.3407 142.059 13.538C142.32 12.726 142.451 11.8113 142.451 10.794ZM173.011 0.602V21H168.839V9.268C168.839 8.99733 168.844 8.70333 168.853 8.386C168.872 8.06867 168.9 7.74667 168.937 7.42L163.519 17.906C163.351 18.2327 163.123 18.48 162.833 18.648C162.553 18.816 162.231 18.9 161.867 18.9H161.223C160.859 18.9 160.533 18.816 160.243 18.648C159.963 18.48 159.739 18.2327 159.571 17.906L154.153 7.392C154.181 7.728 154.205 8.05933 154.223 8.386C154.242 8.70333 154.251 8.99733 154.251 9.268V21H150.079V0.602H153.691C153.897 0.602 154.074 0.606666 154.223 0.615999C154.382 0.625333 154.522 0.653333 154.643 0.699999C154.765 0.746666 154.872 0.821333 154.965 0.924C155.068 1.01733 155.166 1.15267 155.259 1.33L160.509 11.676C160.696 12.0307 160.873 12.3993 161.041 12.782C161.219 13.1647 161.387 13.5567 161.545 13.958C161.704 13.5473 161.867 13.146 162.035 12.754C162.213 12.362 162.399 11.9887 162.595 11.634L167.831 1.33C167.925 1.15267 168.018 1.01733 168.111 0.924C168.214 0.821333 168.326 0.746666 168.447 0.699999C168.569 0.653333 168.704 0.625333 168.853 0.615999C169.012 0.606666 169.194 0.602 169.399 0.602H173.011Z" fill="#FFFDFD"/>
</svg>
