<svg width="690" height="127" viewBox="0 0 690 127" fill="none" xmlns="http://www.w3.org/2000/svg">
<path d="M138.571 28.09L123.391 77.04L124.051 80.23L122.291 80.67L120.091 87.82L109.531 84.52L111.951 76.6L100.071 24.13L110.851 21.71L118.551 55.7L128.121 24.9L138.571 28.09ZM158.12 32.38C160.246 40.74 162.52 48.99 164.94 57.13C167.433 65.1967 170.146 73.2267 173.08 81.22L162.85 84.96C162.043 82.9067 161.273 80.89 160.54 78.91C159.88 76.8567 159.183 74.8033 158.45 72.75C156.836 72.75 155.223 72.75 153.61 72.75C152.07 72.75 150.493 72.7133 148.88 72.64L147.67 81.44L136.78 80.01L143.6 29.74L154.49 31.28L154.16 33.37L158.12 32.38ZM150.31 61.64C151.116 61.7133 151.886 61.75 152.62 61.75C153.353 61.75 154.123 61.75 154.93 61.75C154.343 59.99 153.793 58.23 153.28 56.47C152.766 54.71 152.253 52.95 151.74 51.19L150.31 61.64ZM205.581 89.58C203.015 89.6533 200.448 89.7633 197.881 89.91C195.315 90.0567 192.748 90.3133 190.181 90.68V94.75H179.181V23.25H190.181V79.68C192.675 79.3133 195.168 79.0567 197.661 78.91C200.155 78.7633 202.685 78.6533 205.251 78.58L205.581 89.58ZM232.273 34.8H243.273V76.27H232.273V74.51L222.593 79.57V82.54H211.593V40.74H222.593V67.14L232.273 62.08V34.8ZM260.375 66.92C265.068 66.92 269.762 66.81 274.455 66.59L274.895 77.59C266.902 77.8833 258.872 77.9933 250.805 77.92V76.38H249.375V35.46H250.365L250.255 34.69C254.068 34.1767 257.882 33.8467 261.695 33.7C265.508 33.48 269.322 33.4433 273.135 33.59L272.915 44.59C270.788 44.5167 268.698 44.5167 266.645 44.59C264.592 44.59 262.502 44.6633 260.375 44.81V51.41H262.025L268.955 51.19L269.175 62.19L262.355 62.41H260.375V66.92ZM348.378 27.54C347.865 36.9267 347.645 46.3867 347.718 55.92C347.865 65.38 348.085 74.8033 348.378 84.19L337.378 84.63C337.232 78.3967 337.122 72.2367 337.048 66.15C336.975 59.99 336.902 53.7933 336.828 47.56L331.328 56.58L333.418 61.2L323.518 65.82L317.248 52.51V81.55H306.248V22.59H317.248V26.55L325.718 44.7L336.938 24.68L348.378 27.54ZM375.791 32.38C377.917 40.74 380.191 48.99 382.611 57.13C385.104 65.1967 387.817 73.2267 390.751 81.22L380.521 84.96C379.714 82.9067 378.944 80.89 378.211 78.91C377.551 76.8567 376.854 74.8033 376.121 72.75C374.507 72.75 372.894 72.75 371.281 72.75C369.741 72.75 368.164 72.7133 366.551 72.64L365.341 81.44L354.451 80.01L361.271 29.74L372.161 31.28L371.831 33.37L375.791 32.38ZM367.981 61.64C368.787 61.7133 369.557 61.75 370.291 61.75C371.024 61.75 371.794 61.75 372.601 61.75C372.014 59.99 371.464 58.23 370.951 56.47C370.437 54.71 369.924 52.95 369.411 51.19L367.981 61.64ZM412.509 50.97H426.699V70.22L426.039 85.62C424.793 85.9133 423.546 86.28 422.299 86.72C421.126 87.0867 419.879 87.3433 418.559 87.49H416.799H416.029H415.149H414.599H414.049C413.976 87.4167 413.829 87.38 413.609 87.38H413.059C412.179 87.2333 411.446 87.0867 410.859 86.94C410.273 86.8667 409.576 86.6833 408.769 86.39C407.963 86.17 407.229 85.9133 406.569 85.62C405.103 85.0333 403.783 84.3367 402.609 83.53C402.023 83.09 401.436 82.65 400.849 82.21C400.263 81.6967 399.713 81.1467 399.199 80.56C398.613 80.0467 398.099 79.4967 397.659 78.91C397.219 78.3233 396.779 77.7367 396.339 77.15C395.973 76.5633 395.606 75.94 395.239 75.28C394.946 74.62 394.653 73.9967 394.359 73.41C393.993 72.75 393.699 72.1267 393.479 71.54C393.259 70.88 393.039 70.22 392.819 69.56C392.086 67.0667 391.536 64.5 391.169 61.86C391.023 60.6133 390.913 59.3667 390.839 58.12C390.766 56.8733 390.729 55.6267 390.729 54.38C390.729 53.1333 390.766 51.8867 390.839 50.64C390.913 49.3933 391.023 48.1467 391.169 46.9C391.243 45.6533 391.463 44.37 391.829 43.05C392.049 41.8767 392.379 40.5933 392.819 39.2C393.626 36.4867 394.763 33.9933 396.229 31.72C397.696 29.3 399.529 27.1367 401.729 25.23C402.829 24.2767 404.003 23.47 405.249 22.81C406.496 22.0767 407.779 21.4167 409.099 20.83C409.759 20.61 410.419 20.39 411.079 20.17C411.813 19.95 412.509 19.7667 413.169 19.62C413.756 19.4733 414.489 19.3267 415.369 19.18C415.516 19.18 415.663 19.18 415.809 19.18C416.029 19.1067 416.249 19.07 416.469 19.07H417.019L417.349 18.96H417.789L417.899 29.96H417.789H417.679C417.606 30.0333 417.533 30.07 417.459 30.07H416.909C416.689 30.1433 416.469 30.18 416.249 30.18C416.029 30.18 415.846 30.2167 415.699 30.29C415.259 30.4367 414.819 30.5833 414.379 30.73C413.939 30.8033 413.536 30.9133 413.169 31.06C412.363 31.4267 411.593 31.83 410.859 32.27C410.126 32.6367 409.466 33.1133 408.879 33.7C408.659 33.8467 408.329 34.14 407.889 34.58L407.009 35.46C406.716 35.8267 406.459 36.1933 406.239 36.56C406.019 36.8533 405.763 37.1833 405.469 37.55C404.516 39.2367 403.783 40.8867 403.269 42.5C403.123 42.94 402.976 43.4167 402.829 43.93C402.756 44.37 402.646 44.8467 402.499 45.36C402.426 45.8 402.353 46.2767 402.279 46.79C402.206 47.23 402.133 47.7067 402.059 48.22C401.839 50.2 401.729 52.2533 401.729 54.38C401.729 56.5067 401.839 58.56 402.059 60.54C402.206 61.5667 402.353 62.5567 402.499 63.51C402.719 64.4633 403.013 65.38 403.379 66.26C403.599 66.9933 403.893 67.8367 404.259 68.79L405.579 71.1C406.459 72.3467 407.523 73.4467 408.769 74.4C409.356 74.7667 410.053 75.1333 410.859 75.5C411.006 75.5733 411.153 75.6467 411.299 75.72C411.519 75.7933 411.739 75.8667 411.959 75.94C412.399 76.0867 412.803 76.16 413.169 76.16C413.609 76.3067 414.013 76.38 414.379 76.38C414.526 76.38 414.636 76.4167 414.709 76.49H414.929H415.259H415.589H415.699V61.97H412.509V50.97ZM454.041 32.38C456.168 40.74 458.441 48.99 460.861 57.13C463.355 65.1967 466.068 73.2267 469.001 81.22L458.771 84.96C457.965 82.9067 457.195 80.89 456.461 78.91C455.801 76.8567 455.105 74.8033 454.371 72.75C452.758 72.75 451.145 72.75 449.531 72.75C447.991 72.75 446.415 72.7133 444.801 72.64L443.591 81.44L432.701 80.01L439.521 29.74L450.411 31.28L450.081 33.37L454.041 32.38ZM446.231 61.64C447.038 61.7133 447.808 61.75 448.541 61.75C449.275 61.75 450.045 61.75 450.851 61.75C450.265 59.99 449.715 58.23 449.201 56.47C448.688 54.71 448.175 52.95 447.661 51.19L446.231 61.64ZM488.81 65.16L501.46 66.15L500.47 77.15L482.32 75.61L481.66 76.71L472.31 70.88L487.38 46.68H474.62V35.68H500.91V46.68L488.81 65.16ZM507.514 25.01H518.514V84.41H507.514V25.01ZM548.654 34.69H559.654V84.41H548.654V77.7C548.287 76.8933 547.884 76.05 547.444 75.17C547.004 74.29 546.564 73.41 546.124 72.53L544.694 69.56L543.264 66.59C542.237 64.6833 541.247 62.74 540.294 60.76C539.341 58.78 538.351 56.8 537.324 54.82C537.031 54.2333 536.737 53.6467 536.444 53.06C536.151 52.4733 535.857 51.8867 535.564 51.3V87.49H524.564V22.59H535.564V26.55C536.004 27.5033 536.444 28.4567 536.884 29.41C537.397 30.3633 537.874 31.3167 538.314 32.27L539.744 35.24L541.284 38.1C542.237 40.08 543.191 42.06 544.144 44.04C545.097 46.02 546.087 47.9633 547.114 49.87C547.407 50.4567 547.664 51.0067 547.884 51.52C548.177 51.96 548.434 52.4367 548.654 52.95V34.69ZM576.677 66.92C581.37 66.92 586.063 66.81 590.757 66.59L591.197 77.59C583.203 77.8833 575.173 77.9933 567.107 77.92V76.38H565.677V35.46H566.667L566.557 34.69C570.37 34.1767 574.183 33.8467 577.997 33.7C581.81 33.48 585.623 33.4433 589.437 33.59L589.217 44.59C587.09 44.5167 585 44.5167 582.947 44.59C580.893 44.59 578.803 44.6633 576.677 44.81V51.41H578.327L585.257 51.19L585.477 62.19L578.657 62.41H576.677V66.92Z" fill="#BCDB37"/>
<path d="M134.571 24.09L119.391 73.04L120.051 76.23L118.291 76.67L116.091 83.82L105.531 80.52L107.951 72.6L96.0715 20.13L106.851 17.71L114.551 51.7L124.121 20.9L134.571 24.09ZM154.12 28.38C156.246 36.74 158.52 44.99 160.94 53.13C163.433 61.1967 166.146 69.2267 169.08 77.22L158.85 80.96C158.043 78.9067 157.273 76.89 156.54 74.91C155.88 72.8567 155.183 70.8033 154.45 68.75C152.836 68.75 151.223 68.75 149.61 68.75C148.07 68.75 146.493 68.7133 144.88 68.64L143.67 77.44L132.78 76.01L139.6 25.74L150.49 27.28L150.16 29.37L154.12 28.38ZM146.31 57.64C147.116 57.7133 147.886 57.75 148.62 57.75C149.353 57.75 150.123 57.75 150.93 57.75C150.343 55.99 149.793 54.23 149.28 52.47C148.766 50.71 148.253 48.95 147.74 47.19L146.31 57.64ZM201.581 85.58C199.015 85.6533 196.448 85.7633 193.881 85.91C191.315 86.0567 188.748 86.3133 186.181 86.68V90.75H175.181V19.25H186.181V75.68C188.675 75.3133 191.168 75.0567 193.661 74.91C196.155 74.7633 198.685 74.6533 201.251 74.58L201.581 85.58ZM228.273 30.8H239.273V72.27H228.273V70.51L218.593 75.57V78.54H207.593V36.74H218.593V63.14L228.273 58.08V30.8ZM256.375 62.92C261.068 62.92 265.762 62.81 270.455 62.59L270.895 73.59C262.902 73.8833 254.872 73.9933 246.805 73.92V72.38H245.375V31.46H246.365L246.255 30.69C250.068 30.1767 253.882 29.8467 257.695 29.7C261.508 29.48 265.322 29.4433 269.135 29.59L268.915 40.59C266.788 40.5167 264.698 40.5167 262.645 40.59C260.592 40.59 258.502 40.6633 256.375 40.81V47.41H258.025L264.955 47.19L265.175 58.19L258.355 58.41H256.375V62.92ZM344.378 23.54C343.865 32.9267 343.645 42.3867 343.718 51.92C343.865 61.38 344.085 70.8033 344.378 80.19L333.378 80.63C333.232 74.3967 333.122 68.2367 333.048 62.15C332.975 55.99 332.902 49.7933 332.828 43.56L327.328 52.58L329.418 57.2L319.518 61.82L313.248 48.51V77.55H302.248V18.59H313.248V22.55L321.718 40.7L332.938 20.68L344.378 23.54ZM371.791 28.38C373.917 36.74 376.191 44.99 378.611 53.13C381.104 61.1967 383.817 69.2267 386.751 77.22L376.521 80.96C375.714 78.9067 374.944 76.89 374.211 74.91C373.551 72.8567 372.854 70.8033 372.121 68.75C370.507 68.75 368.894 68.75 367.281 68.75C365.741 68.75 364.164 68.7133 362.551 68.64L361.341 77.44L350.451 76.01L357.271 25.74L368.161 27.28L367.831 29.37L371.791 28.38ZM363.981 57.64C364.787 57.7133 365.557 57.75 366.291 57.75C367.024 57.75 367.794 57.75 368.601 57.75C368.014 55.99 367.464 54.23 366.951 52.47C366.437 50.71 365.924 48.95 365.411 47.19L363.981 57.64ZM408.509 46.97H422.699V66.22L422.039 81.62C420.793 81.9133 419.546 82.28 418.299 82.72C417.126 83.0867 415.879 83.3433 414.559 83.49H412.799H412.029H411.149H410.599H410.049C409.976 83.4167 409.829 83.38 409.609 83.38H409.059C408.179 83.2333 407.446 83.0867 406.859 82.94C406.273 82.8667 405.576 82.6833 404.769 82.39C403.963 82.17 403.229 81.9133 402.569 81.62C401.103 81.0333 399.783 80.3367 398.609 79.53C398.023 79.09 397.436 78.65 396.849 78.21C396.263 77.6967 395.713 77.1467 395.199 76.56C394.613 76.0467 394.099 75.4967 393.659 74.91C393.219 74.3233 392.779 73.7367 392.339 73.15C391.973 72.5633 391.606 71.94 391.239 71.28C390.946 70.62 390.653 69.9967 390.359 69.41C389.993 68.75 389.699 68.1267 389.479 67.54C389.259 66.88 389.039 66.22 388.819 65.56C388.086 63.0667 387.536 60.5 387.169 57.86C387.023 56.6133 386.913 55.3667 386.839 54.12C386.766 52.8733 386.729 51.6267 386.729 50.38C386.729 49.1333 386.766 47.8867 386.839 46.64C386.913 45.3933 387.023 44.1467 387.169 42.9C387.243 41.6533 387.463 40.37 387.829 39.05C388.049 37.8767 388.379 36.5933 388.819 35.2C389.626 32.4867 390.763 29.9933 392.229 27.72C393.696 25.3 395.529 23.1367 397.729 21.23C398.829 20.2767 400.003 19.47 401.249 18.81C402.496 18.0767 403.779 17.4167 405.099 16.83C405.759 16.61 406.419 16.39 407.079 16.17C407.813 15.95 408.509 15.7667 409.169 15.62C409.756 15.4733 410.489 15.3267 411.369 15.18C411.516 15.18 411.663 15.18 411.809 15.18C412.029 15.1067 412.249 15.07 412.469 15.07H413.019L413.349 14.96H413.789L413.899 25.96H413.789H413.679C413.606 26.0333 413.533 26.07 413.459 26.07H412.909C412.689 26.1433 412.469 26.18 412.249 26.18C412.029 26.18 411.846 26.2167 411.699 26.29C411.259 26.4367 410.819 26.5833 410.379 26.73C409.939 26.8033 409.536 26.9133 409.169 27.06C408.363 27.4267 407.593 27.83 406.859 28.27C406.126 28.6367 405.466 29.1133 404.879 29.7C404.659 29.8467 404.329 30.14 403.889 30.58L403.009 31.46C402.716 31.8267 402.459 32.1933 402.239 32.56C402.019 32.8533 401.763 33.1833 401.469 33.55C400.516 35.2367 399.783 36.8867 399.269 38.5C399.123 38.94 398.976 39.4167 398.829 39.93C398.756 40.37 398.646 40.8467 398.499 41.36C398.426 41.8 398.353 42.2767 398.279 42.79C398.206 43.23 398.133 43.7067 398.059 44.22C397.839 46.2 397.729 48.2533 397.729 50.38C397.729 52.5067 397.839 54.56 398.059 56.54C398.206 57.5667 398.353 58.5567 398.499 59.51C398.719 60.4633 399.013 61.38 399.379 62.26C399.599 62.9933 399.893 63.8367 400.259 64.79L401.579 67.1C402.459 68.3467 403.523 69.4467 404.769 70.4C405.356 70.7667 406.053 71.1333 406.859 71.5C407.006 71.5733 407.153 71.6467 407.299 71.72C407.519 71.7933 407.739 71.8667 407.959 71.94C408.399 72.0867 408.803 72.16 409.169 72.16C409.609 72.3067 410.013 72.38 410.379 72.38C410.526 72.38 410.636 72.4167 410.709 72.49H410.929H411.259H411.589H411.699V57.97H408.509V46.97ZM450.041 28.38C452.168 36.74 454.441 44.99 456.861 53.13C459.355 61.1967 462.068 69.2267 465.001 77.22L454.771 80.96C453.965 78.9067 453.195 76.89 452.461 74.91C451.801 72.8567 451.105 70.8033 450.371 68.75C448.758 68.75 447.145 68.75 445.531 68.75C443.991 68.75 442.415 68.7133 440.801 68.64L439.591 77.44L428.701 76.01L435.521 25.74L446.411 27.28L446.081 29.37L450.041 28.38ZM442.231 57.64C443.038 57.7133 443.808 57.75 444.541 57.75C445.275 57.75 446.045 57.75 446.851 57.75C446.265 55.99 445.715 54.23 445.201 52.47C444.688 50.71 444.175 48.95 443.661 47.19L442.231 57.64ZM484.81 61.16L497.46 62.15L496.47 73.15L478.32 71.61L477.66 72.71L468.31 66.88L483.38 42.68H470.62V31.68H496.91V42.68L484.81 61.16ZM503.514 21.01H514.514V80.41H503.514V21.01ZM544.654 30.69H555.654V80.41H544.654V73.7C544.287 72.8933 543.884 72.05 543.444 71.17C543.004 70.29 542.564 69.41 542.124 68.53L540.694 65.56L539.264 62.59C538.237 60.6833 537.247 58.74 536.294 56.76C535.341 54.78 534.351 52.8 533.324 50.82C533.031 50.2333 532.737 49.6467 532.444 49.06C532.151 48.4733 531.857 47.8867 531.564 47.3V83.49H520.564V18.59H531.564V22.55C532.004 23.5033 532.444 24.4567 532.884 25.41C533.397 26.3633 533.874 27.3167 534.314 28.27L535.744 31.24L537.284 34.1C538.237 36.08 539.191 38.06 540.144 40.04C541.097 42.02 542.087 43.9633 543.114 45.87C543.407 46.4567 543.664 47.0067 543.884 47.52C544.177 47.96 544.434 48.4367 544.654 48.95V30.69ZM572.677 62.92C577.37 62.92 582.063 62.81 586.757 62.59L587.197 73.59C579.203 73.8833 571.173 73.9933 563.107 73.92V72.38H561.677V31.46H562.667L562.557 30.69C566.37 30.1767 570.183 29.8467 573.997 29.7C577.81 29.48 581.623 29.4433 585.437 29.59L585.217 40.59C583.09 40.5167 581 40.5167 578.947 40.59C576.893 40.59 574.803 40.6633 572.677 40.81V47.41H574.327L581.257 47.19L581.477 58.19L574.657 58.41H572.677V62.92Z" fill="#208B71"/>
<line x1="189.5" y1="123.5" x2="509.5" y2="123.5" stroke="#BCDB37" stroke-width="3"/>
<line x1="289.5" y1="123" x2="409.5" y2="123" stroke="#208B71" stroke-width="8"/>
</svg>
