<svg width="690" height="128" viewBox="0 0 690 128" fill="none" xmlns="http://www.w3.org/2000/svg">
<path d="M109.341 70.34L123.971 71.55L123.091 82.55L109.671 81.45V82.33L98.6714 82.66L97.7914 45.7L95.5914 38.77L120.341 31.18L123.531 41.63L108.791 46.25L109.341 70.34ZM158.054 58.57L140.344 81.12L122.524 61.87L137.484 36.79L146.944 42.51L145.294 45.15L158.054 58.57ZM139.464 55.05L136.164 60.44L140.234 64.95L143.754 59.78L139.464 55.05ZM206.196 28.54C205.683 37.9267 205.463 47.3867 205.536 56.92C205.683 66.38 205.903 75.8033 206.196 85.19L195.196 85.63C195.05 79.3967 194.94 73.2367 194.866 67.15C194.793 60.99 194.72 54.7933 194.646 48.56L189.146 57.58L191.236 62.2L181.336 66.82L175.066 53.51V82.55H164.066V23.59H175.066V27.55L183.536 45.7L194.756 25.68L206.196 28.54ZM243.289 50.21C243.215 50.5767 243.142 50.98 243.069 51.42C243.069 51.86 242.995 52.3 242.849 52.74C242.775 53.4733 242.555 54.3167 242.189 55.27C241.969 56.0033 241.675 56.81 241.309 57.69C241.162 58.0567 240.979 58.46 240.759 58.9C240.612 59.2667 240.429 59.6333 240.209 60C239.402 61.4667 238.522 62.86 237.569 64.18C236.615 65.5 235.625 66.7467 234.599 67.92C233.499 69.0933 232.362 70.1933 231.189 71.22C230.089 72.1733 228.952 73.1267 227.779 74.08C227.192 74.52 226.605 74.96 226.019 75.4C225.432 75.84 224.845 76.28 224.259 76.72L223.379 77.27L223.269 77.38V88.27H212.269V21.61H219.969L220.409 20.73C220.629 20.8767 220.849 21.0233 221.069 21.17C221.362 21.3167 221.619 21.4633 221.839 21.61H223.269V22.38C224.955 23.3333 226.532 24.2867 227.999 25.24C229.245 26.12 230.455 27.0367 231.629 27.99C232.802 28.87 233.975 29.86 235.149 30.96C235.735 31.5467 236.285 32.1333 236.799 32.72C237.385 33.3067 237.972 33.93 238.559 34.59C238.632 34.6633 238.742 34.8467 238.889 35.14L239.329 35.58C239.475 35.7267 239.585 35.91 239.659 36.13C239.805 36.35 239.952 36.5333 240.099 36.68C240.245 36.8267 240.355 37.01 240.429 37.23C240.502 37.45 240.612 37.6333 240.759 37.78L241.089 38.44L241.309 38.77C241.309 38.8433 241.345 38.9167 241.419 38.99C241.785 39.7967 242.152 40.6767 242.519 41.63C242.885 42.51 243.142 43.4633 243.289 44.49V45.26C243.362 45.48 243.399 45.7367 243.399 46.03L243.289 50.21ZM230.529 54.94C231.995 52.08 232.435 49.2567 231.849 46.47C231.262 43.61 229.869 41.1167 227.669 38.99C226.422 37.8167 224.955 36.6433 223.269 35.47V63.52C223.855 63.0067 224.405 62.53 224.919 62.09C225.432 61.5767 225.945 61.0267 226.459 60.44C228.219 58.5333 229.575 56.7 230.529 54.94ZM267.094 33.38C269.221 41.74 271.494 49.99 273.914 58.13C276.408 66.1967 279.121 74.2267 282.054 82.22L271.824 85.96C271.018 83.9067 270.248 81.89 269.514 79.91C268.854 77.8567 268.158 75.8033 267.424 73.75C265.811 73.75 264.198 73.75 262.584 73.75C261.044 73.75 259.468 73.7133 257.854 73.64L256.644 82.44L245.754 81.01L252.574 30.74L263.464 32.28L263.134 34.37L267.094 33.38ZM259.284 62.64C260.091 62.7133 260.861 62.75 261.594 62.75C262.328 62.75 263.098 62.75 263.904 62.75C263.318 60.99 262.768 59.23 262.254 57.47C261.741 55.71 261.228 53.95 260.714 52.19L259.284 62.64ZM312.246 35.69H323.246V85.41H312.246V78.7C311.879 77.8933 311.476 77.05 311.036 76.17C310.596 75.29 310.156 74.41 309.716 73.53L308.286 70.56L306.856 67.59C305.829 65.6833 304.839 63.74 303.886 61.76C302.933 59.78 301.943 57.8 300.916 55.82C300.623 55.2333 300.329 54.6467 300.036 54.06C299.743 53.4733 299.449 52.8867 299.156 52.3V88.49H288.156V23.59H299.156V27.55C299.596 28.5033 300.036 29.4567 300.476 30.41C300.989 31.3633 301.466 32.3167 301.906 33.27L303.336 36.24L304.876 39.1C305.829 41.08 306.783 43.06 307.736 45.04C308.689 47.02 309.679 48.9633 310.706 50.87C310.999 51.4567 311.256 52.0067 311.476 52.52C311.769 52.96 312.026 53.4367 312.246 53.95V35.69ZM347.642 58.02V86.29H336.642V61.43L334.112 60.11L335.982 56.59L324.542 25.79L334.882 21.94L342.692 43.17L352.702 23.59L362.492 28.54L347.642 58.02ZM424.896 50.21C424.823 50.5767 424.749 50.98 424.676 51.42C424.676 51.86 424.603 52.3 424.456 52.74C424.383 53.4733 424.163 54.3167 423.796 55.27C423.576 56.0033 423.283 56.81 422.916 57.69C422.769 58.0567 422.586 58.46 422.366 58.9C422.219 59.2667 422.036 59.6333 421.816 60C421.009 61.4667 420.129 62.86 419.176 64.18C418.223 65.5 417.233 66.7467 416.206 67.92C415.106 69.0933 413.969 70.1933 412.796 71.22C411.696 72.1733 410.559 73.1267 409.386 74.08C408.799 74.52 408.213 74.96 407.626 75.4C407.039 75.84 406.453 76.28 405.866 76.72L404.986 77.27L404.876 77.38V88.27H393.876V21.61H401.576L402.016 20.73C402.236 20.8767 402.456 21.0233 402.676 21.17C402.969 21.3167 403.226 21.4633 403.446 21.61H404.876V22.38C406.563 23.3333 408.139 24.2867 409.606 25.24C410.853 26.12 412.063 27.0367 413.236 27.99C414.409 28.87 415.583 29.86 416.756 30.96C417.343 31.5467 417.893 32.1333 418.406 32.72C418.993 33.3067 419.579 33.93 420.166 34.59C420.239 34.6633 420.349 34.8467 420.496 35.14L420.936 35.58C421.083 35.7267 421.193 35.91 421.266 36.13C421.413 36.35 421.559 36.5333 421.706 36.68C421.853 36.8267 421.963 37.01 422.036 37.23C422.109 37.45 422.219 37.6333 422.366 37.78L422.696 38.44L422.916 38.77C422.916 38.8433 422.953 38.9167 423.026 38.99C423.393 39.7967 423.759 40.6767 424.126 41.63C424.493 42.51 424.749 43.4633 424.896 44.49V45.26C424.969 45.48 425.006 45.7367 425.006 46.03L424.896 50.21ZM412.136 54.94C413.603 52.08 414.043 49.2567 413.456 46.47C412.869 43.61 411.476 41.1167 409.276 38.99C408.029 37.8167 406.563 36.6433 404.876 35.47V63.52C405.463 63.0067 406.013 62.53 406.526 62.09C407.039 61.5767 407.553 61.0267 408.066 60.44C409.826 58.5333 411.183 56.7 412.136 54.94ZM457.741 32.61C458.548 33.7833 459.171 35.03 459.611 36.35C460.051 37.67 460.345 39.0267 460.491 40.42C460.711 41.5933 460.748 42.9867 460.601 44.6C460.455 45.92 460.161 47.24 459.721 48.56C459.355 49.88 458.805 51.1267 458.071 52.3C457.411 53.4733 456.678 54.5733 455.871 55.6C454.991 56.6267 454.038 57.58 453.011 58.46L452.681 58.79L452.241 59.01L451.801 59.34L451.471 59.67C453.085 62.4567 454.625 65.3167 456.091 68.25C457.558 71.11 459.025 74.0433 460.491 77.05L450.701 81.78C449.308 78.9933 447.878 76.28 446.411 73.64C445.018 70.9267 443.588 68.2133 442.121 65.5V88.27H431.121V21.61H440.691L441.131 20.73L446.411 23.7L448.941 25.13C449.455 25.35 449.931 25.6067 450.371 25.9C450.811 26.12 451.325 26.4133 451.911 26.78C452.425 27.1467 452.938 27.5133 453.451 27.88C453.965 28.2467 454.478 28.6867 454.991 29.2C456.091 30.2267 457.008 31.3633 457.741 32.61ZM445.861 36.02C445.495 35.8 445.128 35.58 444.761 35.36C444.468 35.14 444.101 34.92 443.661 34.7L442.121 33.82V52.41C442.488 52.19 442.855 51.97 443.221 51.75C443.588 51.53 443.955 51.31 444.321 51.09C444.468 50.9433 444.615 50.87 444.761 50.87C444.981 50.7967 445.165 50.6867 445.311 50.54L445.531 50.32L445.641 50.21L445.861 50.1L446.081 49.88C446.301 49.7333 446.521 49.55 446.741 49.33C447.035 49.11 447.255 48.8533 447.401 48.56C448.355 47.5333 448.978 46.4333 449.271 45.26C449.491 44.6733 449.601 44.0867 449.601 43.5C449.748 42.9133 449.748 42.3267 449.601 41.74C449.528 41.1533 449.381 40.6033 449.161 40.09C449.015 39.5033 448.795 38.9533 448.501 38.44C448.061 37.8533 447.695 37.45 447.401 37.23C447.255 37.01 447.035 36.8267 446.741 36.68C446.521 36.46 446.228 36.24 445.861 36.02ZM494.981 58.57L477.271 81.12L459.451 61.87L474.411 36.79L483.871 42.51L482.221 45.15L494.981 58.57ZM476.391 55.05L473.091 60.44L477.161 64.95L480.681 59.78L476.391 55.05ZM511.993 42.51H519.693V53.51H511.993V88.27H500.993V21.61H504.843V20.07C509.17 19.9233 513.46 19.8867 517.713 19.96C522.04 20.0333 526.403 20.2167 530.803 20.51L530.143 31.51C527.063 31.3633 524.02 31.2533 521.013 31.18C518.08 31.0333 515.073 30.96 511.993 30.96V42.51ZM536.842 26.01H547.842V85.41H536.842V26.01ZM580.292 90.58C577.725 90.6533 575.158 90.7633 572.592 90.91C570.025 91.0567 567.458 91.3133 564.892 91.68V95.75H553.892V24.25H564.892V80.68C567.385 80.3133 569.878 80.0567 572.372 79.91C574.865 79.7633 577.395 79.6533 579.962 79.58L580.292 90.58ZM582.157 67.92C586.85 67.92 591.543 67.81 596.237 67.59L596.677 78.59C588.683 78.8833 580.653 78.9933 572.587 78.92V77.38H571.157V36.46H572.147L572.037 35.69C575.85 35.1767 579.663 34.8467 583.477 34.7C587.29 34.48 591.103 34.4433 594.917 34.59L594.697 45.59C592.57 45.5167 590.48 45.5167 588.427 45.59C586.373 45.59 584.283 45.6633 582.157 45.81V52.41H583.807L590.737 52.19L590.957 63.19L584.137 63.41H582.157V67.92Z" fill="#BCDB37"/>
<path d="M104.341 65.34L118.971 66.55L118.091 77.55L104.671 76.45V77.33L93.6714 77.66L92.7914 40.7L90.5914 33.77L115.341 26.18L118.531 36.63L103.791 41.25L104.341 65.34ZM153.054 53.57L135.344 76.12L117.524 56.87L132.484 31.79L141.944 37.51L140.294 40.15L153.054 53.57ZM134.464 50.05L131.164 55.44L135.234 59.95L138.754 54.78L134.464 50.05ZM201.196 23.54C200.683 32.9267 200.463 42.3867 200.536 51.92C200.683 61.38 200.903 70.8033 201.196 80.19L190.196 80.63C190.05 74.3967 189.94 68.2367 189.866 62.15C189.793 55.99 189.72 49.7933 189.646 43.56L184.146 52.58L186.236 57.2L176.336 61.82L170.066 48.51V77.55H159.066V18.59H170.066V22.55L178.536 40.7L189.756 20.68L201.196 23.54ZM238.289 45.21C238.215 45.5767 238.142 45.98 238.069 46.42C238.069 46.86 237.995 47.3 237.849 47.74C237.775 48.4733 237.555 49.3167 237.189 50.27C236.969 51.0033 236.675 51.81 236.309 52.69C236.162 53.0567 235.979 53.46 235.759 53.9C235.612 54.2667 235.429 54.6333 235.209 55C234.402 56.4667 233.522 57.86 232.569 59.18C231.615 60.5 230.625 61.7467 229.599 62.92C228.499 64.0933 227.362 65.1933 226.189 66.22C225.089 67.1733 223.952 68.1267 222.779 69.08C222.192 69.52 221.605 69.96 221.019 70.4C220.432 70.84 219.845 71.28 219.259 71.72L218.379 72.27L218.269 72.38V83.27H207.269V16.61H214.969L215.409 15.73C215.629 15.8767 215.849 16.0233 216.069 16.17C216.362 16.3167 216.619 16.4633 216.839 16.61H218.269V17.38C219.955 18.3333 221.532 19.2867 222.999 20.24C224.245 21.12 225.455 22.0367 226.629 22.99C227.802 23.87 228.975 24.86 230.149 25.96C230.735 26.5467 231.285 27.1333 231.799 27.72C232.385 28.3067 232.972 28.93 233.559 29.59C233.632 29.6633 233.742 29.8467 233.889 30.14L234.329 30.58C234.475 30.7267 234.585 30.91 234.659 31.13C234.805 31.35 234.952 31.5333 235.099 31.68C235.245 31.8267 235.355 32.01 235.429 32.23C235.502 32.45 235.612 32.6333 235.759 32.78L236.089 33.44L236.309 33.77C236.309 33.8433 236.345 33.9167 236.419 33.99C236.785 34.7967 237.152 35.6767 237.519 36.63C237.885 37.51 238.142 38.4633 238.289 39.49V40.26C238.362 40.48 238.399 40.7367 238.399 41.03L238.289 45.21ZM225.529 49.94C226.995 47.08 227.435 44.2567 226.849 41.47C226.262 38.61 224.869 36.1167 222.669 33.99C221.422 32.8167 219.955 31.6433 218.269 30.47V58.52C218.855 58.0067 219.405 57.53 219.919 57.09C220.432 56.5767 220.945 56.0267 221.459 55.44C223.219 53.5333 224.575 51.7 225.529 49.94ZM262.094 28.38C264.221 36.74 266.494 44.99 268.914 53.13C271.408 61.1967 274.121 69.2267 277.054 77.22L266.824 80.96C266.018 78.9067 265.248 76.89 264.514 74.91C263.854 72.8567 263.158 70.8033 262.424 68.75C260.811 68.75 259.198 68.75 257.584 68.75C256.044 68.75 254.468 68.7133 252.854 68.64L251.644 77.44L240.754 76.01L247.574 25.74L258.464 27.28L258.134 29.37L262.094 28.38ZM254.284 57.64C255.091 57.7133 255.861 57.75 256.594 57.75C257.328 57.75 258.098 57.75 258.904 57.75C258.318 55.99 257.768 54.23 257.254 52.47C256.741 50.71 256.228 48.95 255.714 47.19L254.284 57.64ZM307.246 30.69H318.246V80.41H307.246V73.7C306.879 72.8933 306.476 72.05 306.036 71.17C305.596 70.29 305.156 69.41 304.716 68.53L303.286 65.56L301.856 62.59C300.829 60.6833 299.839 58.74 298.886 56.76C297.933 54.78 296.943 52.8 295.916 50.82C295.623 50.2333 295.329 49.6467 295.036 49.06C294.743 48.4733 294.449 47.8867 294.156 47.3V83.49H283.156V18.59H294.156V22.55C294.596 23.5033 295.036 24.4567 295.476 25.41C295.989 26.3633 296.466 27.3167 296.906 28.27L298.336 31.24L299.876 34.1C300.829 36.08 301.783 38.06 302.736 40.04C303.689 42.02 304.679 43.9633 305.706 45.87C305.999 46.4567 306.256 47.0067 306.476 47.52C306.769 47.96 307.026 48.4367 307.246 48.95V30.69ZM342.642 53.02V81.29H331.642V56.43L329.112 55.11L330.982 51.59L319.542 20.79L329.882 16.94L337.692 38.17L347.702 18.59L357.492 23.54L342.642 53.02ZM419.896 45.21C419.823 45.5767 419.749 45.98 419.676 46.42C419.676 46.86 419.603 47.3 419.456 47.74C419.383 48.4733 419.163 49.3167 418.796 50.27C418.576 51.0033 418.283 51.81 417.916 52.69C417.769 53.0567 417.586 53.46 417.366 53.9C417.219 54.2667 417.036 54.6333 416.816 55C416.009 56.4667 415.129 57.86 414.176 59.18C413.223 60.5 412.233 61.7467 411.206 62.92C410.106 64.0933 408.969 65.1933 407.796 66.22C406.696 67.1733 405.559 68.1267 404.386 69.08C403.799 69.52 403.213 69.96 402.626 70.4C402.039 70.84 401.453 71.28 400.866 71.72L399.986 72.27L399.876 72.38V83.27H388.876V16.61H396.576L397.016 15.73C397.236 15.8767 397.456 16.0233 397.676 16.17C397.969 16.3167 398.226 16.4633 398.446 16.61H399.876V17.38C401.563 18.3333 403.139 19.2867 404.606 20.24C405.853 21.12 407.063 22.0367 408.236 22.99C409.409 23.87 410.583 24.86 411.756 25.96C412.343 26.5467 412.893 27.1333 413.406 27.72C413.993 28.3067 414.579 28.93 415.166 29.59C415.239 29.6633 415.349 29.8467 415.496 30.14L415.936 30.58C416.083 30.7267 416.193 30.91 416.266 31.13C416.413 31.35 416.559 31.5333 416.706 31.68C416.853 31.8267 416.963 32.01 417.036 32.23C417.109 32.45 417.219 32.6333 417.366 32.78L417.696 33.44L417.916 33.77C417.916 33.8433 417.953 33.9167 418.026 33.99C418.393 34.7967 418.759 35.6767 419.126 36.63C419.493 37.51 419.749 38.4633 419.896 39.49V40.26C419.969 40.48 420.006 40.7367 420.006 41.03L419.896 45.21ZM407.136 49.94C408.603 47.08 409.043 44.2567 408.456 41.47C407.869 38.61 406.476 36.1167 404.276 33.99C403.029 32.8167 401.563 31.6433 399.876 30.47V58.52C400.463 58.0067 401.013 57.53 401.526 57.09C402.039 56.5767 402.553 56.0267 403.066 55.44C404.826 53.5333 406.183 51.7 407.136 49.94ZM452.741 27.61C453.548 28.7833 454.171 30.03 454.611 31.35C455.051 32.67 455.345 34.0267 455.491 35.42C455.711 36.5933 455.748 37.9867 455.601 39.6C455.455 40.92 455.161 42.24 454.721 43.56C454.355 44.88 453.805 46.1267 453.071 47.3C452.411 48.4733 451.678 49.5733 450.871 50.6C449.991 51.6267 449.038 52.58 448.011 53.46L447.681 53.79L447.241 54.01L446.801 54.34L446.471 54.67C448.085 57.4567 449.625 60.3167 451.091 63.25C452.558 66.11 454.025 69.0433 455.491 72.05L445.701 76.78C444.308 73.9933 442.878 71.28 441.411 68.64C440.018 65.9267 438.588 63.2133 437.121 60.5V83.27H426.121V16.61H435.691L436.131 15.73L441.411 18.7L443.941 20.13C444.455 20.35 444.931 20.6067 445.371 20.9C445.811 21.12 446.325 21.4133 446.911 21.78C447.425 22.1467 447.938 22.5133 448.451 22.88C448.965 23.2467 449.478 23.6867 449.991 24.2C451.091 25.2267 452.008 26.3633 452.741 27.61ZM440.861 31.02C440.495 30.8 440.128 30.58 439.761 30.36C439.468 30.14 439.101 29.92 438.661 29.7L437.121 28.82V47.41C437.488 47.19 437.855 46.97 438.221 46.75C438.588 46.53 438.955 46.31 439.321 46.09C439.468 45.9433 439.615 45.87 439.761 45.87C439.981 45.7967 440.165 45.6867 440.311 45.54L440.531 45.32L440.641 45.21L440.861 45.1L441.081 44.88C441.301 44.7333 441.521 44.55 441.741 44.33C442.035 44.11 442.255 43.8533 442.401 43.56C443.355 42.5333 443.978 41.4333 444.271 40.26C444.491 39.6733 444.601 39.0867 444.601 38.5C444.748 37.9133 444.748 37.3267 444.601 36.74C444.528 36.1533 444.381 35.6033 444.161 35.09C444.015 34.5033 443.795 33.9533 443.501 33.44C443.061 32.8533 442.695 32.45 442.401 32.23C442.255 32.01 442.035 31.8267 441.741 31.68C441.521 31.46 441.228 31.24 440.861 31.02ZM489.981 53.57L472.271 76.12L454.451 56.87L469.411 31.79L478.871 37.51L477.221 40.15L489.981 53.57ZM471.391 50.05L468.091 55.44L472.161 59.95L475.681 54.78L471.391 50.05ZM506.993 37.51H514.693V48.51H506.993V83.27H495.993V16.61H499.843V15.07C504.17 14.9233 508.46 14.8867 512.713 14.96C517.04 15.0333 521.403 15.2167 525.803 15.51L525.143 26.51C522.063 26.3633 519.02 26.2533 516.013 26.18C513.08 26.0333 510.073 25.96 506.993 25.96V37.51ZM531.842 21.01H542.842V80.41H531.842V21.01ZM575.292 85.58C572.725 85.6533 570.158 85.7633 567.592 85.91C565.025 86.0567 562.458 86.3133 559.892 86.68V90.75H548.892V19.25H559.892V75.68C562.385 75.3133 564.878 75.0567 567.372 74.91C569.865 74.7633 572.395 74.6533 574.962 74.58L575.292 85.58ZM577.157 62.92C581.85 62.92 586.543 62.81 591.237 62.59L591.677 73.59C583.683 73.8833 575.653 73.9933 567.587 73.92V72.38H566.157V31.46H567.147L567.037 30.69C570.85 30.1767 574.663 29.8467 578.477 29.7C582.29 29.48 586.103 29.4433 589.917 29.59L589.697 40.59C587.57 40.5167 585.48 40.5167 583.427 40.59C581.373 40.59 579.283 40.6633 577.157 40.81V47.41H578.807L585.737 47.19L585.957 58.19L579.137 58.41H577.157V62.92Z" fill="#208B71"/>
<line x1="187" y1="124.5" x2="507" y2="124.5" stroke="#BCDB37" stroke-width="3"/>
<line x1="287" y1="124" x2="407" y2="124" stroke="#208B71" stroke-width="8"/>
</svg>
