<svg width="159" height="54" viewBox="0 0 159 54" fill="none" xmlns="http://www.w3.org/2000/svg">
<g opacity="0.4">
<rect x="2.50269" y="19.0596" width="154" height="34" rx="17" transform="rotate(-3 2.50269 19.0596)" fill="#FE7201"/>
<path d="M29.8001 35.3732L32.5768 38.6003C32.6621 38.7 32.7167 38.8253 32.7241 38.9651C32.7417 39.3006 32.4803 39.5867 32.1407 39.6045C31.941 39.615 31.7562 39.5285 31.6368 39.3906L28.3261 35.5265L25.6737 35.6655L25.864 39.2966C25.882 39.6401 25.6137 39.9466 25.2742 39.9643C24.9346 39.9821 24.6357 39.7054 24.6177 39.3619L24.1124 29.7191C24.09 29.2917 24.3057 29.0521 24.7331 29.0297L28.48 28.8333C31.1483 28.6935 32.6474 30.165 32.741 31.9506C32.8226 33.5084 31.8201 34.9389 29.8001 35.3732ZM25.384 30.1371L25.6141 34.5271L28.7697 34.3617C30.5553 34.2681 31.4553 33.3278 31.3868 32.0215C31.3186 30.7193 30.3252 29.8782 28.5397 29.9717L25.384 30.1371ZM39.9034 31.5712C40.0147 31.2489 40.2143 31.0823 40.4979 31.0674C40.9413 31.0442 41.1954 31.4594 41.0519 31.8555L38.3946 39.0084C37.4221 41.6228 36.8172 42.6159 35.4871 42.6856C35.1755 42.7019 34.9815 42.668 34.6768 42.5878C34.4374 42.5283 34.2508 42.3298 34.2374 42.0741C34.221 41.7626 34.4675 41.4973 34.7797 41.493C35.0416 41.5233 35.2237 41.5578 35.4753 41.5446C36.1065 41.5115 36.408 41.0752 37.1954 38.9791L33.6334 32.3084C33.5889 32.2226 33.5645 32.1397 33.5597 32.0479C33.5419 31.7083 33.8031 31.4183 34.1426 31.4005C34.3983 31.3871 34.6219 31.5276 34.7335 31.746L37.7798 37.5185L39.9034 31.5712ZM45.5673 30.7376C47.7284 30.6244 48.7859 31.4662 48.9012 33.6672L49.134 38.1091C49.1514 38.4406 48.898 38.7263 48.5664 38.7437C48.2389 38.7608 47.957 38.5032 47.9396 38.1717L47.8861 37.1491C47.4538 38.1491 46.4529 38.9225 45.1107 38.9928C43.6927 39.0672 42.3288 38.3415 42.2422 36.6878C42.1591 35.102 43.4825 34.1394 45.4398 34.0368C46.1389 34.0002 46.9123 34.0838 47.7378 34.321L47.71 33.7897C47.6336 32.3317 46.9183 31.7523 45.4004 31.8319C44.6214 31.8727 43.9774 32.1187 43.501 32.4281C43.3019 32.5267 43.1929 32.5884 43.0092 32.5981C42.7735 32.6104 42.5284 32.443 42.5119 32.1275C42.501 31.9197 42.6022 31.7102 42.9058 31.542C43.5187 31.1614 44.4449 30.7965 45.5673 30.7376ZM45.2754 38.0069C46.7573 37.9292 47.8697 36.8375 47.7931 35.3755L47.781 35.1438C47.0187 34.8914 46.2451 34.8037 45.6099 34.837C44.12 34.9151 43.3743 35.515 43.4286 36.5495C43.4828 37.5841 44.2807 38.059 45.2754 38.0069ZM55.0021 30.2432C56.5999 30.1594 58.0913 31.1027 58.1929 33.04L58.433 37.6217C58.4504 37.9533 58.201 38.2387 57.8694 38.2561C57.5379 38.2735 57.26 38.0157 57.2426 37.6841L57.0283 33.5937C56.9372 31.8561 55.8727 31.3391 54.7382 31.3986C53.5958 31.4584 52.3676 32.2518 52.4545 33.9095L52.6649 37.924C52.6823 38.2556 52.4329 38.541 52.1013 38.5584C51.7698 38.5758 51.4919 38.318 51.4745 37.9864L51.1147 31.1198C51.0973 30.7883 51.3467 30.5028 51.6783 30.4855C52.0098 30.4681 52.2877 30.7259 52.305 31.0575L52.3542 31.9962C52.5848 31.2751 53.4323 30.3255 55.0021 30.2432ZM74.6211 26.3471C75.0126 26.3265 75.3493 26.6374 75.3694 27.0208L75.8754 36.6756C75.8934 37.0191 75.6251 37.3256 75.2855 37.3434C74.946 37.3612 74.6471 37.0844 74.6291 36.7409L74.2041 28.632L70.7218 34.0297C70.5734 34.2537 70.3442 34.3899 70.0845 34.4035C69.8169 34.4176 69.5867 34.3055 69.4116 34.0983L65.3842 29.0943L65.8092 37.2031C65.8272 37.5467 65.5589 37.8531 65.2193 37.8709C64.8798 37.8887 64.5809 37.612 64.5629 37.2684L64.0569 27.6137C64.0366 27.2262 64.3392 26.8859 64.7307 26.8654C64.9903 26.8518 65.1885 26.9656 65.3216 27.1348L70.0079 32.9415L74.0578 26.681C74.1764 26.4985 74.3615 26.3607 74.6211 26.3471ZM78.9667 37.2185C78.4394 37.2462 78.023 36.8674 77.9954 36.3402C77.9683 35.8249 78.3425 35.3967 78.8697 35.3691C79.385 35.3421 79.8178 35.7279 79.8448 36.2432C79.8724 36.7705 79.4819 37.1915 78.9667 37.2185ZM92.0775 26.6419L86.4252 26.9381L86.6358 30.9566L91.9166 30.6798C92.2281 30.6635 92.501 30.9015 92.5177 31.2211C92.5345 31.5407 92.2878 31.8019 91.9762 31.8183L86.6955 32.095L86.9052 36.0975C86.9232 36.4411 86.6549 36.7475 86.3154 36.7653C85.9758 36.7831 85.677 36.5064 85.659 36.1628L85.1536 26.5201C85.1318 26.1046 85.3589 25.8524 85.7744 25.8306L92.0178 25.5034C92.3254 25.4873 92.602 25.7212 92.6187 26.0407C92.6355 26.3603 92.385 26.6258 92.0775 26.6419ZM94.4311 24.5678C94.9464 24.5408 95.3794 24.9307 95.4064 25.446C95.4341 25.9733 95.0434 26.3903 94.5281 26.4173C94.0048 26.4447 93.5846 26.0702 93.557 25.5429C93.53 25.0276 93.9079 24.5953 94.4311 24.5678ZM94.6193 28.235C94.9509 28.2177 95.2287 28.4755 95.2461 28.807L95.606 35.6736C95.6234 36.0051 95.374 36.2906 95.0424 36.3079C94.7109 36.3253 94.433 36.0675 94.4156 35.736L94.0557 28.8694C94.0384 28.5378 94.2878 28.2524 94.6193 28.235ZM101.457 27.8687C101.956 27.8425 102.232 28.1365 102.252 28.5279C102.273 28.9194 101.965 29.3081 101.494 29.2647C99.803 29.1009 98.8684 30.4517 98.9639 32.2732L99.1324 35.4888C99.1498 35.8203 98.9004 36.1058 98.5688 36.1231C98.2373 36.1405 97.9594 35.8827 97.942 35.5512L97.5822 28.6846C97.5648 28.353 97.8142 28.0676 98.1457 28.0502C98.4773 28.0328 98.7552 28.2907 98.7725 28.6222L98.8487 30.0762C99.2015 28.9362 100.2 27.8825 101.457 27.8687ZM109.671 23.2685C110.003 23.2511 110.281 23.5089 110.298 23.8364L110.876 34.8733C110.894 35.2048 110.644 35.4903 110.313 35.5077C109.981 35.525 109.703 35.2672 109.686 34.9357L109.632 33.9091C109.091 34.9789 108.099 35.6918 106.737 35.7631C104.44 35.8835 102.777 34.1762 102.655 31.8594C102.534 29.5426 104.01 27.6748 106.307 27.5544C107.669 27.483 108.731 28.0923 109.38 29.1037L109.108 23.8988C109.09 23.5713 109.34 23.2858 109.671 23.2685ZM106.9 34.6651C108.514 34.5805 109.652 33.143 109.566 31.4973C109.48 29.8515 108.197 28.5408 106.584 28.6254C104.93 28.7121 103.813 30.0964 103.902 31.7941C103.99 33.4878 105.246 34.7518 106.9 34.6651ZM116.142 27.039C118.303 26.9257 119.361 27.7675 119.476 29.9685L119.709 34.4104C119.726 34.7419 119.473 35.0276 119.141 35.045C118.814 35.0621 118.532 34.8045 118.515 34.473L118.461 33.4504C118.029 34.4504 117.028 35.2238 115.686 35.2942C114.268 35.3685 112.904 34.6429 112.817 32.9891C112.734 31.4033 114.058 30.4407 116.015 30.3382C116.714 30.3015 117.487 30.3852 118.313 30.6223L118.285 30.091C118.209 28.633 117.493 28.0536 115.975 28.1332C115.196 28.174 114.552 28.4201 114.076 28.7294C113.877 28.828 113.768 28.8898 113.584 28.8994C113.349 28.9117 113.103 28.7443 113.087 28.4288C113.076 28.2211 113.177 28.0115 113.481 27.8434C114.094 27.4628 115.02 27.0978 116.142 27.039ZM115.85 34.3082C117.332 34.2305 118.445 33.1388 118.368 31.6768L118.356 31.4451C117.594 31.1927 116.82 31.1051 116.185 31.1383C114.695 31.2164 113.949 31.8163 114.004 32.8509C114.058 33.8854 114.856 34.3603 115.85 34.3082ZM127.81 26.4956C128.141 26.4782 128.419 26.736 128.436 27.0676L128.796 33.9342C128.814 34.2657 128.564 34.5511 128.233 34.5685C127.901 34.5859 127.623 34.3281 127.606 33.9965L127.557 33.0538C127.326 33.7789 126.559 34.7243 125.013 34.8054C123.443 34.8876 122.031 33.9402 121.93 32.0029L121.69 27.4212C121.672 27.0896 121.922 26.8042 122.253 26.7868C122.585 26.7694 122.863 27.0272 122.88 27.3588L123.094 31.4492C123.185 33.1868 124.17 33.708 125.281 33.6498C126.395 33.5914 127.543 32.8022 127.456 31.1445L127.246 27.13C127.229 26.7984 127.478 26.513 127.81 26.4956ZM131.873 28.4897C131.966 30.2552 136.728 28.8 136.886 31.8119C136.973 33.4736 135.6 34.2505 133.711 34.3495C132.708 34.4021 131.803 34.2612 131.054 33.948C130.846 33.8708 130.695 33.6824 130.684 33.4547C130.667 33.1392 130.886 32.8834 131.222 32.8777C131.927 33.0211 132.591 33.3187 133.698 33.2607C134.836 33.2011 135.719 32.8624 135.674 31.9876C135.573 30.0702 130.826 31.5126 130.674 28.6046C130.595 27.0947 131.89 26.2136 133.632 26.1224C134.507 26.0765 135.319 26.2182 135.973 26.4723C136.243 26.5743 136.396 26.7346 136.41 27.0142C136.427 27.3258 136.206 27.5536 135.87 27.5632C135.229 27.4766 134.619 27.1561 133.689 27.2049C132.37 27.274 131.839 27.8385 131.873 28.4897Z" fill="#FFFDFD"/>
</g>
<rect x="2.70837" y="11" width="154" height="34" rx="17" transform="rotate(3 2.70837 11)" fill="#FE7201"/>
<path d="M35.59 30.4916L34.0366 25.7397C33.9906 25.5985 33.943 25.4358 33.8939 25.2516C33.8451 25.0621 33.7995 24.8621 33.7571 24.6516C33.6227 25.0772 33.4893 25.4307 33.3571 25.7121L31.3159 30.2676L35.59 30.4916ZM38.5948 34.9109L37.3965 34.8481C37.258 34.8408 37.148 34.8003 37.0664 34.7266C36.9848 34.6529 36.9255 34.5617 36.8885 34.4529L35.9628 31.6326L30.8259 31.3634L29.6105 34.0715C29.5735 34.1657 29.5078 34.2477 29.4133 34.3175C29.3189 34.3874 29.2051 34.4188 29.0719 34.4118L27.8736 34.349L33.0513 23.1406L34.6171 23.2227L38.5948 34.9109ZM41.4389 28.1224C41.625 27.9346 41.8207 27.7659 42.0262 27.6165C42.2316 27.467 42.4465 27.3421 42.6707 27.2417C42.9005 27.1362 43.1395 27.0606 43.3875 27.0149C43.6412 26.9641 43.9118 26.9462 44.1995 26.9613C44.6415 26.9845 45.0264 27.0794 45.3541 27.2461C45.6875 27.4078 45.9589 27.6303 46.1683 27.9136C46.3834 28.1919 46.5396 28.5232 46.6369 28.9075C46.7343 29.2918 46.771 29.713 46.747 30.171L46.4769 35.324L45.0469 35.249L45.3169 30.0961C45.349 29.4836 45.2327 29.0022 44.968 28.6518C44.7089 28.2965 44.2945 28.1038 43.7246 28.074C43.3038 28.0519 42.9044 28.1325 42.5263 28.3156C42.1535 28.499 41.8036 28.7557 41.4765 29.0857L41.1642 35.0455L39.7342 34.9706L40.1583 26.8777L41.0131 26.9225C41.2155 26.9331 41.3355 27.0382 41.3731 27.2378L41.4389 28.1224ZM54.2398 29.5463C53.9922 29.1755 53.7176 28.9128 53.4159 28.7581C53.1145 28.5981 52.7721 28.5081 52.3886 28.488C51.6377 28.4486 51.0457 28.6873 50.6127 29.204C50.1798 29.7207 49.9372 30.4771 49.885 31.473C49.8574 32.0003 49.8789 32.4554 49.9496 32.8383C50.0206 33.2159 50.1376 33.5317 50.3005 33.786C50.4637 34.0348 50.6702 34.2219 50.92 34.3471C51.1698 34.4724 51.4571 34.5435 51.782 34.5606C52.2507 34.5851 52.6637 34.4999 53.0211 34.3051C53.3838 34.1104 53.7218 33.8264 54.0351 33.453L54.2398 29.5463ZM55.9553 24.0205L55.3386 35.7884L54.4918 35.744C54.2894 35.7334 54.1667 35.6282 54.1238 35.4283L54.0475 34.439C53.6795 34.8362 53.2678 35.1511 52.8123 35.3836C52.3569 35.6161 51.8389 35.7171 51.2583 35.6867C50.795 35.6624 50.3788 35.5525 50.0099 35.3569C49.6412 35.156 49.3328 34.8755 49.0847 34.5153C48.8365 34.1552 48.6541 33.713 48.5373 33.1889C48.4206 32.6647 48.3798 32.0671 48.415 31.396C48.4463 30.7995 48.5552 30.2498 48.7418 29.7468C48.9286 29.2386 49.1811 28.8032 49.4992 28.4407C49.8172 28.0782 50.1976 27.8017 50.6401 27.6113C51.0883 27.4158 51.584 27.3323 52.1273 27.3608C52.6226 27.3867 53.0416 27.4941 53.3841 27.683C53.7323 27.8668 54.0371 28.1151 54.2984 28.4278L54.5333 23.946L55.9553 24.0205ZM59.3823 28.9667C59.7478 28.6173 60.1466 28.3445 60.5788 28.1482C61.011 27.9518 61.5014 27.8681 62.05 27.8968C62.492 27.92 62.8769 28.0149 63.2046 28.1816C63.538 28.3433 63.8094 28.5658 64.0188 28.8492C64.2339 29.1275 64.3901 29.4587 64.4874 29.843C64.5848 30.2273 64.6215 30.6485 64.5975 31.1065L64.3274 36.2595L62.8974 36.1845L63.1674 31.0316C63.1995 30.4191 63.0832 29.9377 62.8185 29.5873C62.5594 29.232 62.145 29.0393 61.5751 29.0095C61.1543 28.9874 60.7549 29.068 60.3768 29.2511C60.004 29.4345 59.6541 29.6912 59.327 30.0212L59.0147 35.981L57.5847 35.9061L58.2014 24.1382L59.6314 24.2132L59.3823 28.9667ZM68.4204 28.3588L67.9962 36.4517L66.5742 36.3772L66.9983 28.2843L68.4204 28.3588ZM68.8571 25.8342C68.8498 25.9727 68.8137 26.1017 68.7487 26.2211C68.6893 26.3355 68.6092 26.4381 68.5083 26.5289C68.413 26.6147 68.3 26.6809 68.1694 26.7275C68.0441 26.7743 67.9122 26.7941 67.7738 26.7868C67.6353 26.7796 67.5062 26.7461 67.3865 26.6864C67.2721 26.627 67.172 26.5497 67.0862 26.4544C67.0007 26.3538 66.9344 26.2435 66.8873 26.1235C66.8404 25.9982 66.8206 25.8664 66.8279 25.7279C66.8351 25.5894 66.8686 25.4603 66.9283 25.3406C66.9883 25.2156 67.0659 25.1102 67.1612 25.0244C67.2567 24.9332 67.3645 24.8641 67.4845 24.817C67.6098 24.7702 67.7416 24.7504 67.8801 24.7576C68.0186 24.7649 68.1477 24.7984 68.2674 24.858C68.3924 24.918 68.4977 24.9983 68.5832 25.0989C68.6743 25.1945 68.7432 25.3076 68.7897 25.4382C68.8419 25.5637 68.8644 25.6958 68.8571 25.8342ZM72.3796 24.8813L72.0166 31.8078L72.384 31.827C72.4906 31.8326 72.5791 31.8239 72.6498 31.8009C72.726 31.7729 72.8065 31.7157 72.8911 31.6293L75.5912 29.023C75.6705 28.9364 75.7514 28.8712 75.8338 28.8275C75.9218 28.7787 76.035 28.7579 76.1735 28.7652L77.4597 28.8326L74.3136 31.848C74.1603 32.0216 73.9984 32.1546 73.828 32.2472C73.9206 32.3161 74.0019 32.3951 74.072 32.4843C74.1477 32.5684 74.2173 32.6655 74.281 32.7756L77.2353 36.9359L75.9651 36.8694C75.8426 36.8629 75.737 36.8387 75.6484 36.7967C75.5654 36.7496 75.4948 36.6711 75.4365 36.5613L72.9499 33.1064C72.8758 32.9904 72.7997 32.9143 72.7215 32.8781C72.6489 32.8369 72.5327 32.8122 72.3729 32.8038L71.9655 32.7824L71.7628 36.6491L70.3328 36.5742L70.9495 24.8063L72.3796 24.8813ZM83.0236 33.5863C82.3673 33.5732 81.8053 33.5972 81.3375 33.6581C80.8753 33.714 80.4942 33.8009 80.1943 33.9187C79.8997 34.0367 79.6811 34.1828 79.5384 34.3569C79.4011 34.5313 79.3266 34.7304 79.3149 34.9541C79.3037 35.1671 79.3287 35.3527 79.3899 35.5107C79.451 35.6688 79.5375 35.8015 79.6494 35.9089C79.7669 36.0112 79.9042 36.0905 80.0615 36.1468C80.2244 36.198 80.399 36.2285 80.5854 36.2383C80.8357 36.2514 81.066 36.2395 81.2762 36.2024C81.4868 36.16 81.6851 36.0957 81.8712 36.0093C82.0626 35.9232 82.2444 35.8179 82.4164 35.6934C82.5939 35.5692 82.7669 35.426 82.9356 35.264L83.0236 33.5863ZM78.6032 30.0381C79.0732 29.6301 79.5721 29.3331 80.0999 29.1472C80.6277 28.9612 81.2058 28.8847 81.8343 28.9176C82.287 28.9414 82.6852 29.037 83.0289 29.2045C83.3726 29.3721 83.6573 29.5953 83.883 29.8742C84.1087 30.153 84.2729 30.4847 84.3756 30.8693C84.4783 31.2539 84.5178 31.6725 84.494 32.1252L84.2227 37.3021L83.5916 37.269C83.4531 37.2618 83.3477 37.2349 83.2754 37.1884C83.2033 37.1365 83.1495 37.0429 83.1139 36.9076L82.9943 36.1322C82.7709 36.3181 82.554 36.483 82.3435 36.6268C82.1333 36.7654 81.9136 36.882 81.6843 36.9768C81.4553 37.0663 81.2116 37.131 80.9531 37.1708C80.6997 37.2163 80.4186 37.2309 80.1097 37.2147C79.7954 37.1983 79.5021 37.1402 79.2296 37.0404C78.9574 36.9354 78.722 36.7895 78.5235 36.6029C78.3303 36.4165 78.1795 36.187 78.0709 35.9143C77.968 35.6365 77.9262 35.3139 77.9454 34.9464C77.9622 34.6268 78.0661 34.3252 78.2572 34.0414C78.4486 33.7524 78.7474 33.5037 79.1535 33.2953C79.5596 33.087 80.0833 32.9275 80.7247 32.8169C81.3663 32.701 82.1484 32.6565 83.0709 32.6835L83.1039 32.0524C83.1369 31.4239 83.0259 30.9428 82.771 30.609C82.5164 30.2699 82.1282 30.0866 81.6062 30.0593C81.2547 30.0408 80.9567 30.0706 80.7123 30.1486C80.4735 30.2215 80.2633 30.3093 80.0817 30.412C79.9056 30.5095 79.7513 30.6003 79.6188 30.6841C79.4918 30.7629 79.3671 30.7991 79.2446 30.7927C79.1487 30.7876 79.0674 30.7594 79.0007 30.7078C78.9342 30.6509 78.879 30.5839 78.835 30.5068L78.6032 30.0381ZM97.1747 28.2956C97.1226 28.373 97.0661 28.4315 97.0053 28.471C96.9501 28.5055 96.8825 28.5207 96.8026 28.5165C96.7121 28.5117 96.608 28.4609 96.4902 28.3639C96.3725 28.2669 96.2232 28.1603 96.0423 28.044C95.8671 27.9227 95.6514 27.8099 95.3952 27.7057C95.1442 27.6018 94.835 27.5402 94.4676 27.5209C94.1214 27.5028 93.8126 27.5346 93.5413 27.6165C93.2756 27.6934 93.048 27.807 92.8585 27.9573C92.6744 28.1079 92.5313 28.2899 92.4293 28.5036C92.3276 28.7119 92.2702 28.9412 92.2571 29.1915C92.2403 29.5111 92.3036 29.7814 92.4469 30.0025C92.5958 30.2186 92.7942 30.4079 93.042 30.5705C93.2952 30.7333 93.5813 30.8791 93.9003 31.008C94.2249 31.1318 94.5546 31.2612 94.8893 31.3963C95.2294 31.5316 95.5579 31.6823 95.875 31.8485C96.1977 32.0096 96.481 32.2087 96.7249 32.4458C96.9742 32.6832 97.1675 32.9683 97.3049 33.3013C97.4477 33.6346 97.5066 34.0382 97.4818 34.5122C97.4555 35.0129 97.3456 35.4798 97.152 35.9129C96.9587 36.3407 96.6884 36.7084 96.3412 37.016C95.9993 37.3238 95.5838 37.5584 95.0946 37.7197C94.6109 37.8813 94.0654 37.9461 93.4582 37.9143C92.7126 37.8752 92.0432 37.7066 91.4499 37.4085C90.857 37.1051 90.3568 36.713 89.9494 36.2324L90.4353 35.5208C90.481 35.4645 90.5341 35.4192 90.5947 35.385C90.6608 35.3457 90.7312 35.328 90.8057 35.332C90.875 35.3356 90.9507 35.3689 91.0328 35.432C91.1206 35.49 91.2181 35.5645 91.3255 35.6556C91.4329 35.7467 91.5558 35.8466 91.6943 35.9553C91.8328 36.064 91.9904 36.1658 92.167 36.2605C92.349 36.3555 92.5556 36.4384 92.7868 36.5093C93.0184 36.5748 93.2806 36.6152 93.5736 36.6306C93.9411 36.6499 94.2713 36.6164 94.5642 36.5303C94.8571 36.4442 95.1068 36.3157 95.3134 36.145C95.5255 35.9692 95.6916 35.7562 95.8115 35.5062C95.9314 35.2561 95.9996 34.974 96.0161 34.6597C96.0342 34.3135 95.9691 34.0271 95.8208 33.8003C95.678 33.5685 95.4828 33.3714 95.2349 33.2089C94.9871 33.0463 94.7007 32.9058 94.3758 32.7873C94.0512 32.6635 93.7212 32.5394 93.3859 32.415C93.0509 32.2853 92.7221 32.1399 92.3994 31.9788C92.0767 31.8177 91.7936 31.6159 91.5499 31.3735C91.3063 31.1311 91.1135 30.8352 90.9716 30.486C90.8353 30.1317 90.7804 29.7016 90.8069 29.1956C90.8281 28.7908 90.9258 28.4034 91.1001 28.0334C91.2797 27.6636 91.5263 27.34 91.8399 27.0627C92.1589 26.7857 92.5413 26.5708 92.9873 26.4179C93.4385 26.2653 93.9491 26.204 94.519 26.2338C95.1581 26.2673 95.7333 26.3989 96.2447 26.6287C96.7614 26.8587 97.2094 27.1759 97.5887 27.5803L97.1747 28.2956ZM103.62 34.6657C102.964 34.6527 102.402 34.6766 101.934 34.7376C101.472 34.7934 101.091 34.8803 100.791 34.9981C100.496 35.1162 100.278 35.2623 100.135 35.4364C99.9979 35.6107 99.9233 35.8098 99.9116 36.0335C99.9005 36.2465 99.9254 36.4321 99.9866 36.5902C100.048 36.7483 100.134 36.881 100.246 36.9883C100.364 37.0906 100.501 37.1699 100.658 37.2262C100.821 37.2775 100.996 37.308 101.182 37.3177C101.432 37.3309 101.663 37.3189 101.873 37.2818C102.083 37.2395 102.282 37.1751 102.468 37.0887C102.659 37.0026 102.841 36.8973 103.013 36.7728C103.191 36.6486 103.364 36.5055 103.532 36.3434L103.62 34.6657ZM99.1999 31.1175C99.6699 30.7095 100.169 30.4126 100.697 30.2266C101.224 30.0406 101.803 29.9641 102.431 29.9971C102.884 30.0208 103.282 30.1164 103.626 30.284C103.969 30.4515 104.254 30.6747 104.48 30.9536C104.705 31.2325 104.87 31.5642 104.972 31.9487C105.075 32.3333 105.114 32.7519 105.091 33.2047L104.819 38.3816L104.188 38.3485C104.05 38.3412 103.944 38.3143 103.872 38.2678C103.8 38.216 103.746 38.1224 103.711 37.987L103.591 37.2117C103.368 37.3976 103.151 37.5624 102.94 37.7063C102.73 37.8448 102.51 37.9615 102.281 38.0563C102.052 38.1457 101.808 38.2104 101.55 38.2503C101.296 38.2957 101.015 38.3104 100.706 38.2942C100.392 38.2777 100.099 38.2196 99.8263 38.1199C99.5541 38.0148 99.3188 37.869 99.1202 37.6823C98.9271 37.496 98.7762 37.2664 98.6677 36.9937C98.5647 36.7159 98.5229 36.3933 98.5422 36.0258C98.5589 35.7062 98.6628 35.4046 98.8539 35.1209C99.0453 34.8318 99.3441 34.5831 99.7502 34.3748C100.156 34.1664 100.68 34.0069 101.321 33.8963C101.963 33.7804 102.745 33.736 103.668 33.7629L103.701 33.1318C103.734 32.5033 103.623 32.0222 103.368 31.6884C103.113 31.3493 102.725 31.166 102.203 31.1387C101.851 31.1203 101.553 31.15 101.309 31.228C101.07 31.301 100.86 31.3888 100.678 31.4914C100.502 31.589 100.348 31.6797 100.216 31.7635C100.089 31.8423 99.9638 31.8785 99.8413 31.8721C99.7455 31.8671 99.6642 31.8388 99.5974 31.7872C99.531 31.7303 99.4757 31.6633 99.4317 31.5863L99.1999 31.1175ZM109.354 38.7474C108.715 38.7139 108.232 38.5097 107.904 38.1347C107.582 37.76 107.439 37.2371 107.474 36.566L107.733 31.6128L106.759 31.5617C106.674 31.5572 106.603 31.5295 106.547 31.4785C106.491 31.4222 106.466 31.3407 106.472 31.2342L106.501 30.667L107.836 30.5687L108.295 28.0853C108.315 28.0063 108.353 27.9442 108.409 27.899C108.47 27.8488 108.546 27.8261 108.637 27.8309L109.356 27.8686L109.21 30.6567L111.55 30.7794L111.496 31.81L109.156 31.6873L108.901 36.5446C108.883 36.8855 108.952 37.1428 109.109 37.3166C109.265 37.4903 109.474 37.5841 109.735 37.5977C109.884 37.6056 110.013 37.5936 110.121 37.5619C110.235 37.5252 110.334 37.4849 110.416 37.4412C110.499 37.3974 110.567 37.3583 110.623 37.3238C110.683 37.2843 110.735 37.2656 110.778 37.2679C110.852 37.2718 110.916 37.3205 110.97 37.4141L111.35 38.115C111.093 38.3312 110.788 38.4968 110.435 38.6118C110.082 38.7214 109.722 38.7667 109.354 38.7474ZM114.292 32.3891C114.577 31.8486 114.914 31.4337 115.303 31.1443C115.692 30.8496 116.156 30.7163 116.694 30.7445C116.864 30.7535 117.025 30.7806 117.178 30.826C117.336 30.8716 117.474 30.9376 117.592 31.0239L117.433 32.081C117.394 32.2125 117.31 32.2749 117.182 32.2682C117.108 32.2643 117 32.2426 116.857 32.2031C116.715 32.1636 116.554 32.1391 116.373 32.1296C116.117 32.1162 115.886 32.1415 115.68 32.2055C115.479 32.2697 115.294 32.3722 115.127 32.513C114.965 32.6487 114.814 32.8224 114.675 33.034C114.541 33.2406 114.417 33.4798 114.301 33.7514L114.033 38.8644L112.603 38.7895L113.027 30.6966L113.842 30.7393C113.996 30.7474 114.101 30.7823 114.157 30.8439C114.212 30.9056 114.247 31.0089 114.261 31.1538L114.292 32.3891ZM120.349 31.0803L119.925 39.1732L118.503 39.0987L118.927 31.0058L120.349 31.0803ZM120.786 28.5557C120.779 28.6942 120.742 28.8231 120.677 28.9426C120.618 29.0569 120.538 29.1596 120.437 29.2504C120.342 29.3362 120.229 29.4024 120.098 29.4489C119.973 29.4958 119.841 29.5156 119.702 29.5083C119.564 29.5011 119.435 29.4676 119.315 29.4079C119.201 29.3485 119.101 29.2712 119.015 29.1759C118.929 29.0753 118.863 28.965 118.816 28.845C118.769 28.7197 118.749 28.5878 118.757 28.4494C118.764 28.3109 118.797 28.1818 118.857 28.0621C118.917 27.937 118.995 27.8316 119.09 27.7458C119.185 27.6547 119.293 27.5856 119.413 27.5385C119.538 27.4916 119.67 27.4718 119.809 27.4791C119.947 27.4864 120.076 27.5198 120.196 27.5795C120.321 27.6395 120.426 27.7197 120.512 27.8204C120.603 27.9159 120.672 28.029 120.718 28.1596C120.771 28.2852 120.793 28.4172 120.786 28.5557ZM126.838 35.8825C126.182 35.8695 125.62 35.8934 125.152 35.9544C124.69 36.0103 124.309 36.0971 124.009 36.2149C123.715 36.333 123.496 36.4791 123.353 36.6532C123.216 36.8276 123.141 37.0266 123.13 37.2503C123.119 37.4633 123.144 37.6489 123.205 37.807C123.266 37.9651 123.352 38.0978 123.464 38.2051C123.582 38.3074 123.719 38.3867 123.876 38.443C124.039 38.4943 124.214 38.5248 124.4 38.5345C124.651 38.5477 124.881 38.5357 125.091 38.4987C125.302 38.4563 125.5 38.3919 125.686 38.3055C125.877 38.2194 126.059 38.1141 126.231 37.9896C126.409 37.8654 126.582 37.7223 126.751 37.5602L126.838 35.8825ZM122.418 32.3343C122.888 31.9263 123.387 31.6294 123.915 31.4434C124.443 31.2575 125.021 31.1809 125.649 31.2139C126.102 31.2376 126.5 31.3332 126.844 31.5008C127.187 31.6683 127.472 31.8915 127.698 32.1704C127.924 32.4493 128.088 32.781 128.19 33.1656C128.293 33.5501 128.333 33.9688 128.309 34.4215L128.038 39.5984L127.406 39.5653C127.268 39.558 127.163 39.5311 127.09 39.4846C127.018 39.4328 126.964 39.3392 126.929 39.2038L126.809 38.4285C126.586 38.6144 126.369 38.7792 126.158 38.9231C125.948 39.0616 125.728 39.1783 125.499 39.2731C125.27 39.3625 125.026 39.4272 124.768 39.4671C124.515 39.5125 124.233 39.5272 123.925 39.511C123.61 39.4945 123.317 39.4364 123.044 39.3367C122.772 39.2316 122.537 39.0858 122.338 38.8991C122.145 38.7128 121.994 38.4832 121.886 38.2105C121.783 37.9327 121.741 37.6101 121.76 37.2426C121.777 36.923 121.881 36.6214 122.072 36.3377C122.263 36.0486 122.562 35.7999 122.968 35.5916C123.374 35.3832 123.898 35.2237 124.54 35.1131C125.181 34.9972 125.963 34.9528 126.886 34.9798L126.919 34.3486C126.952 33.7201 126.841 33.239 126.586 32.9052C126.331 32.5661 125.943 32.3829 125.421 32.3555C125.07 32.3371 124.772 32.3669 124.527 32.4448C124.288 32.5178 124.078 32.6056 123.897 32.7082C123.721 32.8058 123.566 32.8965 123.434 32.9803C123.307 33.0591 123.182 33.0953 123.059 33.0889C122.964 33.0839 122.882 33.0556 122.816 33.004C122.749 32.9471 122.694 32.8802 122.65 32.8031L122.418 32.3343Z" fill="#FFFDFD"/>
<path d="M80 0V15" stroke="#929292"/>
</svg>
