<svg width="691" height="94" viewBox="0 0 691 94" fill="none" xmlns="http://www.w3.org/2000/svg">
<path d="M222.038 63.18V63.4V64.5C222.038 64.94 222.001 65.27 221.928 65.49C221.708 67.03 221.231 68.35 220.498 69.45C220.351 69.5967 220.241 69.7433 220.168 69.89C220.095 69.9633 220.058 70.0367 220.058 70.11L219.948 70.22C219.875 70.3667 219.765 70.5133 219.618 70.66C219.471 70.8067 219.398 70.9167 219.398 70.99C218.885 71.5033 218.481 71.87 218.188 72.09C217.821 72.4567 217.455 72.7867 217.088 73.08C216.721 73.3733 216.355 73.6667 215.988 73.96C215.695 74.18 215.328 74.4367 214.888 74.73C214.668 74.8767 214.448 74.9867 214.228 75.06C214.081 75.1333 213.898 75.2433 213.678 75.39C212.285 76.1967 210.745 76.8933 209.058 77.48C207.591 77.9933 205.978 78.4333 204.218 78.8C203.411 78.9467 202.568 79.0933 201.688 79.24C200.881 79.3133 200.001 79.35 199.048 79.35V68.35C200.001 68.35 201.028 68.24 202.128 68.02C202.715 67.8733 203.265 67.7267 203.778 67.58C204.291 67.4333 204.841 67.2867 205.428 67.14L208.398 65.82C208.545 65.6733 208.765 65.5267 209.058 65.38C209.351 65.2333 209.535 65.0867 209.608 64.94C209.828 64.7933 210.011 64.6833 210.158 64.61C210.305 64.4633 210.451 64.3167 210.598 64.17C210.745 64.0967 210.818 64.06 210.818 64.06C210.818 63.9867 210.855 63.9133 210.928 63.84C211.001 63.84 211.038 63.8033 211.038 63.73V63.62V63.51V63.29C210.965 63.1433 210.928 62.9967 210.928 62.85C210.928 62.63 210.891 62.4467 210.818 62.3C210.745 62.1533 210.671 62.0433 210.598 61.97C210.598 61.8233 210.525 61.6767 210.378 61.53C210.231 61.1633 210.011 60.87 209.718 60.65C209.205 60.0633 208.471 59.4033 207.518 58.67C207.005 58.3033 206.455 57.9367 205.868 57.57C205.355 57.2033 204.805 56.8367 204.218 56.47L202.238 55.15C201.871 54.93 201.541 54.71 201.248 54.49C200.955 54.1967 200.625 53.9033 200.258 53.61C199.891 53.2433 199.525 52.9133 199.158 52.62C198.865 52.2533 198.535 51.85 198.168 51.41C197.801 51.0433 197.471 50.64 197.178 50.2C196.885 49.76 196.591 49.2467 196.298 48.66C195.711 47.4133 195.308 46.2767 195.088 45.25V44.81C195.015 44.7367 194.978 44.59 194.978 44.37V43.93L194.868 43.6V42.72V42.28V41.73C195.015 41.1433 195.125 40.4833 195.198 39.75C195.345 39.0167 195.565 38.3933 195.858 37.88C196.005 37.5133 196.151 37.1833 196.298 36.89C196.518 36.5967 196.701 36.3033 196.848 36.01C197.068 35.7167 197.288 35.46 197.508 35.24C197.728 35.02 197.948 34.8 198.168 34.58C199.121 33.6267 200.001 32.8933 200.808 32.38C201.028 32.2333 201.248 32.1233 201.468 32.05C201.761 31.9033 202.018 31.7567 202.238 31.61C202.458 31.4633 202.678 31.39 202.898 31.39C203.118 31.3167 203.338 31.2067 203.558 31.06C205.171 30.4733 206.858 29.9967 208.618 29.63C209.058 29.5567 209.498 29.52 209.938 29.52C210.378 29.4467 210.781 29.3733 211.148 29.3C211.735 29.3 212.138 29.2633 212.358 29.19H213.018H213.348H213.568H213.788V40.19H213.458H213.018C212.871 40.19 212.725 40.2267 212.578 40.3C212.505 40.3 212.395 40.3 212.248 40.3C211.735 40.3 211.185 40.3733 210.598 40.52C210.011 40.6667 209.461 40.8133 208.948 40.96C208.435 41.0333 207.995 41.1433 207.628 41.29C207.335 41.4367 207.151 41.51 207.078 41.51C206.931 41.5833 206.821 41.6567 206.748 41.73C206.748 41.73 206.675 41.7667 206.528 41.84C206.381 41.9133 206.198 42.06 205.978 42.28C205.905 42.3533 205.868 42.39 205.868 42.39V42.5V42.61V42.83V42.94V43.05V43.16C205.941 43.3067 205.978 43.4167 205.978 43.49C205.978 43.49 206.015 43.5633 206.088 43.71C206.235 44.0033 206.381 44.2233 206.528 44.37L207.408 45.25C207.628 45.3967 207.811 45.58 207.958 45.8C208.178 45.9467 208.435 46.0933 208.728 46.24C208.948 46.3867 209.168 46.57 209.388 46.79C209.681 46.9367 209.975 47.0833 210.268 47.23C210.855 47.5967 211.441 48 212.028 48.44C212.615 48.8067 213.238 49.2467 213.898 49.76C214.265 49.98 214.595 50.2367 214.888 50.53C215.181 50.75 215.511 51.0067 215.878 51.3C216.538 51.8133 217.235 52.4733 217.968 53.28C218.335 53.6467 218.628 54.05 218.848 54.49C219.141 54.8567 219.471 55.26 219.838 55.7C220.425 56.6533 220.865 57.6433 221.158 58.67C221.525 59.55 221.781 60.6133 221.928 61.86C221.928 62.0067 221.928 62.1533 221.928 62.3C222.001 62.3733 222.038 62.4833 222.038 62.63V62.96V63.18ZM246.363 32.38C248.49 40.74 250.763 48.99 253.183 57.13C255.677 65.1967 258.39 73.2267 261.323 81.22L251.093 84.96C250.287 82.9067 249.517 80.89 248.783 78.91C248.123 76.8567 247.427 74.8033 246.693 72.75C245.08 72.75 243.467 72.75 241.853 72.75C240.313 72.75 238.737 72.7133 237.123 72.64L235.913 81.44L225.023 80.01L231.843 29.74L242.733 31.28L242.403 33.37L246.363 32.38ZM238.553 61.64C239.36 61.7133 240.13 61.75 240.863 61.75C241.597 61.75 242.367 61.75 243.173 61.75C242.587 59.99 242.037 58.23 241.523 56.47C241.01 54.71 240.497 52.95 239.983 51.19L238.553 61.64ZM309.555 27.54C309.042 36.9267 308.822 46.3867 308.895 55.92C309.042 65.38 309.262 74.8033 309.555 84.19L298.555 84.63C298.408 78.3967 298.298 72.2367 298.225 66.15C298.152 59.99 298.078 53.7933 298.005 47.56L292.505 56.58L294.595 61.2L284.695 65.82L278.425 52.51V81.55H267.425V22.59H278.425V26.55L286.895 44.7L298.115 24.68L309.555 27.54ZM354.787 66.7V67.47V67.8V68.13V68.9C354.714 69.34 354.641 69.8167 354.567 70.33C354.567 70.77 354.494 71.2467 354.347 71.76C354.201 72.2733 354.017 72.7867 353.797 73.3C353.651 73.74 353.467 74.2167 353.247 74.73C353.027 75.17 352.771 75.61 352.477 76.05C352.257 76.49 352.001 76.93 351.707 77.37C351.341 77.7367 351.011 78.1033 350.717 78.47C350.424 78.8367 350.094 79.2033 349.727 79.57C349.361 79.9367 348.994 80.2667 348.627 80.56C348.261 80.78 347.894 81.0367 347.527 81.33C346.134 82.21 344.594 83.0167 342.907 83.75C341.367 84.2633 339.827 84.7033 338.287 85.07C337.554 85.29 336.821 85.4733 336.087 85.62C335.354 85.6933 334.584 85.7667 333.777 85.84C332.384 86.06 330.881 86.17 329.267 86.17H327.067H326.627V87.27H315.627V20.61H323.107V20.39C323.474 20.39 323.804 20.39 324.097 20.39C324.391 20.39 324.684 20.4267 324.977 20.5C325.564 20.5 325.967 20.5367 326.187 20.61H326.627C326.774 20.6833 326.847 20.72 326.847 20.72C327.507 20.7933 328.131 20.9033 328.717 21.05C329.377 21.1967 330.001 21.3433 330.587 21.49C331.981 21.8567 333.227 22.3333 334.327 22.92C335.427 23.4333 336.637 24.1667 337.957 25.12C338.544 25.56 339.094 26.0367 339.607 26.55C340.121 27.0633 340.597 27.6133 341.037 28.2C341.477 28.7867 341.881 29.41 342.247 30.07C342.614 30.6567 342.981 31.28 343.347 31.94L343.677 32.93L343.897 33.37C343.971 33.5167 344.007 33.6267 344.007 33.7C344.007 33.7733 344.044 33.8467 344.117 33.92C344.264 34.36 344.337 34.69 344.337 34.91C344.484 35.35 344.557 35.68 344.557 35.9C344.704 36.4867 344.777 36.8533 344.777 37L344.887 37.44V37.99C344.961 38.3567 344.997 38.6867 344.997 38.98C345.071 39.2733 345.107 39.5667 345.107 39.86V40.85V42.06C345.034 42.28 344.997 42.5 344.997 42.72C344.997 42.94 344.961 43.1233 344.887 43.27C344.887 43.4167 344.851 43.5267 344.777 43.6C344.777 43.6733 344.777 43.7833 344.777 43.93L344.667 44.48C344.227 46.1667 343.641 47.5967 342.907 48.77C342.614 49.1367 342.357 49.5033 342.137 49.87C341.917 50.2367 341.661 50.6033 341.367 50.97C341.661 51.0433 342.101 51.2267 342.687 51.52C343.494 51.74 344.264 52.07 344.997 52.51C346.537 53.3167 348.004 54.3433 349.397 55.59C350.204 56.3233 350.864 57.02 351.377 57.68C351.964 58.4133 352.514 59.2567 353.027 60.21C353.247 60.7233 353.431 61.2 353.577 61.64C353.797 62.08 353.981 62.5567 354.127 63.07C354.274 63.5833 354.384 64.0967 354.457 64.61C354.531 65.05 354.604 65.5267 354.677 66.04L354.787 66.7ZM327.617 32.05C327.177 31.9033 326.847 31.83 326.627 31.83V48.44C327.434 48.0733 328.167 47.7067 328.827 47.34C329.487 46.9 330.111 46.46 330.697 46.02C331.871 45.14 332.787 44.1867 333.447 43.16C333.594 42.8667 333.704 42.61 333.777 42.39C333.851 42.17 333.924 41.9867 333.997 41.84V41.62V41.51C334.071 41.4367 334.107 41.3267 334.107 41.18V40.85V40.3C334.107 40.1533 334.071 39.97 333.997 39.75C333.997 39.53 333.997 39.3467 333.997 39.2V38.98L333.887 38.76V38.21C333.814 38.1367 333.777 37.99 333.777 37.77L333.557 37.33V37.11L333.447 36.89C333.447 36.7433 333.374 36.5967 333.227 36.45C333.007 35.8633 332.751 35.3867 332.457 35.02C332.237 34.8 332.017 34.58 331.797 34.36C331.651 34.14 331.431 33.9567 331.137 33.81C330.697 33.4433 330.147 33.1133 329.487 32.82C328.901 32.5267 328.277 32.27 327.617 32.05ZM343.787 67.8V67.58V67.36V67.03C343.714 66.8833 343.677 66.7367 343.677 66.59C343.677 66.37 343.641 66.1867 343.567 66.04C343.494 65.8933 343.421 65.7833 343.347 65.71C343.347 65.5633 343.311 65.4167 343.237 65.27C343.091 64.9767 342.907 64.72 342.687 64.5C342.541 64.2067 342.321 63.95 342.027 63.73C341.734 63.4367 341.404 63.18 341.037 62.96C340.671 62.74 340.304 62.52 339.937 62.3L338.617 61.64C338.324 61.5667 338.067 61.4933 337.847 61.42C337.627 61.3467 337.371 61.2733 337.077 61.2C335.171 60.54 332.971 60.1 330.477 59.88C330.111 59.88 329.744 59.88 329.377 59.88C329.011 59.8067 328.644 59.77 328.277 59.77C328.204 59.77 328.131 59.8067 328.057 59.88C328.057 59.88 327.984 59.88 327.837 59.88C327.617 60.0267 327.214 60.1733 326.627 60.32V75.17H327.397H329.157C329.744 75.17 330.294 75.17 330.807 75.17C331.394 75.0967 331.981 75.0233 332.567 74.95C333.667 74.8033 334.731 74.62 335.757 74.4C336.857 74.18 337.884 73.8867 338.837 73.52C339.717 73.1533 340.524 72.7133 341.257 72.2C341.624 71.98 341.917 71.76 342.137 71.54C342.431 71.2467 342.687 70.99 342.907 70.77C343.274 70.1833 343.494 69.6333 343.567 69.12C343.714 68.8267 343.787 68.5333 343.787 68.24V67.91V67.8ZM381.502 34.8H392.502V76.27H381.502V74.51L371.822 79.57V82.54H360.822V40.74H371.822V67.14L381.502 62.08V34.8ZM409.804 30.73V87.27H398.804V31.39L386.264 32.05L385.714 21.05L422.124 19.07L422.674 30.07L409.804 30.73ZM442.258 32.38C444.385 40.74 446.658 48.99 449.078 57.13C451.571 65.1967 454.285 73.2267 457.218 81.22L446.988 84.96C446.181 82.9067 445.411 80.89 444.678 78.91C444.018 76.8567 443.321 74.8033 442.588 72.75C440.975 72.75 439.361 72.75 437.748 72.75C436.208 72.75 434.631 72.7133 433.018 72.64L431.808 81.44L420.918 80.01L427.738 29.74L438.628 31.28L438.298 33.37L442.258 32.38ZM434.448 61.64C435.255 61.7133 436.025 61.75 436.758 61.75C437.491 61.75 438.261 61.75 439.068 61.75C438.481 59.99 437.931 58.23 437.418 56.47C436.905 54.71 436.391 52.95 435.878 51.19L434.448 61.64ZM487.41 34.69H498.41V84.41H487.41V77.7C487.043 76.8933 486.64 76.05 486.2 75.17C485.76 74.29 485.32 73.41 484.88 72.53L483.45 69.56L482.02 66.59C480.993 64.6833 480.003 62.74 479.05 60.76C478.096 58.78 477.106 56.8 476.08 54.82C475.786 54.2333 475.493 53.6467 475.2 53.06C474.906 52.4733 474.613 51.8867 474.32 51.3V87.49H463.32V22.59H474.32V26.55C474.76 27.5033 475.2 28.4567 475.64 29.41C476.153 30.3633 476.63 31.3167 477.07 32.27L478.5 35.24L480.04 38.1C480.993 40.08 481.946 42.06 482.9 44.04C483.853 46.02 484.843 47.9633 485.87 49.87C486.163 50.4567 486.42 51.0067 486.64 51.52C486.933 51.96 487.19 52.4367 487.41 52.95V34.69Z" fill="#BCDB37"/>
<path d="M217.038 59.18V59.4V60.5C217.038 60.94 217.001 61.27 216.928 61.49C216.708 63.03 216.231 64.35 215.498 65.45C215.351 65.5967 215.241 65.7433 215.168 65.89C215.095 65.9633 215.058 66.0367 215.058 66.11L214.948 66.22C214.875 66.3667 214.765 66.5133 214.618 66.66C214.471 66.8067 214.398 66.9167 214.398 66.99C213.885 67.5033 213.481 67.87 213.188 68.09C212.821 68.4567 212.455 68.7867 212.088 69.08C211.721 69.3733 211.355 69.6667 210.988 69.96C210.695 70.18 210.328 70.4367 209.888 70.73C209.668 70.8767 209.448 70.9867 209.228 71.06C209.081 71.1333 208.898 71.2433 208.678 71.39C207.285 72.1967 205.745 72.8933 204.058 73.48C202.591 73.9933 200.978 74.4333 199.218 74.8C198.411 74.9467 197.568 75.0933 196.688 75.24C195.881 75.3133 195.001 75.35 194.048 75.35V64.35C195.001 64.35 196.028 64.24 197.128 64.02C197.715 63.8733 198.265 63.7267 198.778 63.58C199.291 63.4333 199.841 63.2867 200.428 63.14L203.398 61.82C203.545 61.6733 203.765 61.5267 204.058 61.38C204.351 61.2333 204.535 61.0867 204.608 60.94C204.828 60.7933 205.011 60.6833 205.158 60.61C205.305 60.4633 205.451 60.3167 205.598 60.17C205.745 60.0967 205.818 60.06 205.818 60.06C205.818 59.9867 205.855 59.9133 205.928 59.84C206.001 59.84 206.038 59.8033 206.038 59.73V59.62V59.51V59.29C205.965 59.1433 205.928 58.9967 205.928 58.85C205.928 58.63 205.891 58.4467 205.818 58.3C205.745 58.1533 205.671 58.0433 205.598 57.97C205.598 57.8233 205.525 57.6767 205.378 57.53C205.231 57.1633 205.011 56.87 204.718 56.65C204.205 56.0633 203.471 55.4033 202.518 54.67C202.005 54.3033 201.455 53.9367 200.868 53.57C200.355 53.2033 199.805 52.8367 199.218 52.47L197.238 51.15C196.871 50.93 196.541 50.71 196.248 50.49C195.955 50.1967 195.625 49.9033 195.258 49.61C194.891 49.2433 194.525 48.9133 194.158 48.62C193.865 48.2533 193.535 47.85 193.168 47.41C192.801 47.0433 192.471 46.64 192.178 46.2C191.885 45.76 191.591 45.2467 191.298 44.66C190.711 43.4133 190.308 42.2767 190.088 41.25V40.81C190.015 40.7367 189.978 40.59 189.978 40.37V39.93L189.868 39.6V38.72V38.28V37.73C190.015 37.1433 190.125 36.4833 190.198 35.75C190.345 35.0167 190.565 34.3933 190.858 33.88C191.005 33.5133 191.151 33.1833 191.298 32.89C191.518 32.5967 191.701 32.3033 191.848 32.01C192.068 31.7167 192.288 31.46 192.508 31.24C192.728 31.02 192.948 30.8 193.168 30.58C194.121 29.6267 195.001 28.8933 195.808 28.38C196.028 28.2333 196.248 28.1233 196.468 28.05C196.761 27.9033 197.018 27.7567 197.238 27.61C197.458 27.4633 197.678 27.39 197.898 27.39C198.118 27.3167 198.338 27.2067 198.558 27.06C200.171 26.4733 201.858 25.9967 203.618 25.63C204.058 25.5567 204.498 25.52 204.938 25.52C205.378 25.4467 205.781 25.3733 206.148 25.3C206.735 25.3 207.138 25.2633 207.358 25.19H208.018H208.348H208.568H208.788V36.19H208.458H208.018C207.871 36.19 207.725 36.2267 207.578 36.3C207.505 36.3 207.395 36.3 207.248 36.3C206.735 36.3 206.185 36.3733 205.598 36.52C205.011 36.6667 204.461 36.8133 203.948 36.96C203.435 37.0333 202.995 37.1433 202.628 37.29C202.335 37.4367 202.151 37.51 202.078 37.51C201.931 37.5833 201.821 37.6567 201.748 37.73C201.748 37.73 201.675 37.7667 201.528 37.84C201.381 37.9133 201.198 38.06 200.978 38.28C200.905 38.3533 200.868 38.39 200.868 38.39V38.5V38.61V38.83V38.94V39.05V39.16C200.941 39.3067 200.978 39.4167 200.978 39.49C200.978 39.49 201.015 39.5633 201.088 39.71C201.235 40.0033 201.381 40.2233 201.528 40.37L202.408 41.25C202.628 41.3967 202.811 41.58 202.958 41.8C203.178 41.9467 203.435 42.0933 203.728 42.24C203.948 42.3867 204.168 42.57 204.388 42.79C204.681 42.9367 204.975 43.0833 205.268 43.23C205.855 43.5967 206.441 44 207.028 44.44C207.615 44.8067 208.238 45.2467 208.898 45.76C209.265 45.98 209.595 46.2367 209.888 46.53C210.181 46.75 210.511 47.0067 210.878 47.3C211.538 47.8133 212.235 48.4733 212.968 49.28C213.335 49.6467 213.628 50.05 213.848 50.49C214.141 50.8567 214.471 51.26 214.838 51.7C215.425 52.6533 215.865 53.6433 216.158 54.67C216.525 55.55 216.781 56.6133 216.928 57.86C216.928 58.0067 216.928 58.1533 216.928 58.3C217.001 58.3733 217.038 58.4833 217.038 58.63V58.96V59.18ZM241.363 28.38C243.49 36.74 245.763 44.99 248.183 53.13C250.677 61.1967 253.39 69.2267 256.323 77.22L246.093 80.96C245.287 78.9067 244.517 76.89 243.783 74.91C243.123 72.8567 242.427 70.8033 241.693 68.75C240.08 68.75 238.467 68.75 236.853 68.75C235.313 68.75 233.737 68.7133 232.123 68.64L230.913 77.44L220.023 76.01L226.843 25.74L237.733 27.28L237.403 29.37L241.363 28.38ZM233.553 57.64C234.36 57.7133 235.13 57.75 235.863 57.75C236.597 57.75 237.367 57.75 238.173 57.75C237.587 55.99 237.037 54.23 236.523 52.47C236.01 50.71 235.497 48.95 234.983 47.19L233.553 57.64ZM304.555 23.54C304.042 32.9267 303.822 42.3867 303.895 51.92C304.042 61.38 304.262 70.8033 304.555 80.19L293.555 80.63C293.408 74.3967 293.298 68.2367 293.225 62.15C293.152 55.99 293.078 49.7933 293.005 43.56L287.505 52.58L289.595 57.2L279.695 61.82L273.425 48.51V77.55H262.425V18.59H273.425V22.55L281.895 40.7L293.115 20.68L304.555 23.54ZM349.787 62.7V63.47V63.8V64.13V64.9C349.714 65.34 349.641 65.8167 349.567 66.33C349.567 66.77 349.494 67.2467 349.347 67.76C349.201 68.2733 349.017 68.7867 348.797 69.3C348.651 69.74 348.467 70.2167 348.247 70.73C348.027 71.17 347.771 71.61 347.477 72.05C347.257 72.49 347.001 72.93 346.707 73.37C346.341 73.7367 346.011 74.1033 345.717 74.47C345.424 74.8367 345.094 75.2033 344.727 75.57C344.361 75.9367 343.994 76.2667 343.627 76.56C343.261 76.78 342.894 77.0367 342.527 77.33C341.134 78.21 339.594 79.0167 337.907 79.75C336.367 80.2633 334.827 80.7033 333.287 81.07C332.554 81.29 331.821 81.4733 331.087 81.62C330.354 81.6933 329.584 81.7667 328.777 81.84C327.384 82.06 325.881 82.17 324.267 82.17H322.067H321.627V83.27H310.627V16.61H318.107V16.39C318.474 16.39 318.804 16.39 319.097 16.39C319.391 16.39 319.684 16.4267 319.977 16.5C320.564 16.5 320.967 16.5367 321.187 16.61H321.627C321.774 16.6833 321.847 16.72 321.847 16.72C322.507 16.7933 323.131 16.9033 323.717 17.05C324.377 17.1967 325.001 17.3433 325.587 17.49C326.981 17.8567 328.227 18.3333 329.327 18.92C330.427 19.4333 331.637 20.1667 332.957 21.12C333.544 21.56 334.094 22.0367 334.607 22.55C335.121 23.0633 335.597 23.6133 336.037 24.2C336.477 24.7867 336.881 25.41 337.247 26.07C337.614 26.6567 337.981 27.28 338.347 27.94L338.677 28.93L338.897 29.37C338.971 29.5167 339.007 29.6267 339.007 29.7C339.007 29.7733 339.044 29.8467 339.117 29.92C339.264 30.36 339.337 30.69 339.337 30.91C339.484 31.35 339.557 31.68 339.557 31.9C339.704 32.4867 339.777 32.8533 339.777 33L339.887 33.44V33.99C339.961 34.3567 339.997 34.6867 339.997 34.98C340.071 35.2733 340.107 35.5667 340.107 35.86V36.85V38.06C340.034 38.28 339.997 38.5 339.997 38.72C339.997 38.94 339.961 39.1233 339.887 39.27C339.887 39.4167 339.851 39.5267 339.777 39.6C339.777 39.6733 339.777 39.7833 339.777 39.93L339.667 40.48C339.227 42.1667 338.641 43.5967 337.907 44.77C337.614 45.1367 337.357 45.5033 337.137 45.87C336.917 46.2367 336.661 46.6033 336.367 46.97C336.661 47.0433 337.101 47.2267 337.687 47.52C338.494 47.74 339.264 48.07 339.997 48.51C341.537 49.3167 343.004 50.3433 344.397 51.59C345.204 52.3233 345.864 53.02 346.377 53.68C346.964 54.4133 347.514 55.2567 348.027 56.21C348.247 56.7233 348.431 57.2 348.577 57.64C348.797 58.08 348.981 58.5567 349.127 59.07C349.274 59.5833 349.384 60.0967 349.457 60.61C349.531 61.05 349.604 61.5267 349.677 62.04L349.787 62.7ZM322.617 28.05C322.177 27.9033 321.847 27.83 321.627 27.83V44.44C322.434 44.0733 323.167 43.7067 323.827 43.34C324.487 42.9 325.111 42.46 325.697 42.02C326.871 41.14 327.787 40.1867 328.447 39.16C328.594 38.8667 328.704 38.61 328.777 38.39C328.851 38.17 328.924 37.9867 328.997 37.84V37.62V37.51C329.071 37.4367 329.107 37.3267 329.107 37.18V36.85V36.3C329.107 36.1533 329.071 35.97 328.997 35.75C328.997 35.53 328.997 35.3467 328.997 35.2V34.98L328.887 34.76V34.21C328.814 34.1367 328.777 33.99 328.777 33.77L328.557 33.33V33.11L328.447 32.89C328.447 32.7433 328.374 32.5967 328.227 32.45C328.007 31.8633 327.751 31.3867 327.457 31.02C327.237 30.8 327.017 30.58 326.797 30.36C326.651 30.14 326.431 29.9567 326.137 29.81C325.697 29.4433 325.147 29.1133 324.487 28.82C323.901 28.5267 323.277 28.27 322.617 28.05ZM338.787 63.8V63.58V63.36V63.03C338.714 62.8833 338.677 62.7367 338.677 62.59C338.677 62.37 338.641 62.1867 338.567 62.04C338.494 61.8933 338.421 61.7833 338.347 61.71C338.347 61.5633 338.311 61.4167 338.237 61.27C338.091 60.9767 337.907 60.72 337.687 60.5C337.541 60.2067 337.321 59.95 337.027 59.73C336.734 59.4367 336.404 59.18 336.037 58.96C335.671 58.74 335.304 58.52 334.937 58.3L333.617 57.64C333.324 57.5667 333.067 57.4933 332.847 57.42C332.627 57.3467 332.371 57.2733 332.077 57.2C330.171 56.54 327.971 56.1 325.477 55.88C325.111 55.88 324.744 55.88 324.377 55.88C324.011 55.8067 323.644 55.77 323.277 55.77C323.204 55.77 323.131 55.8067 323.057 55.88C323.057 55.88 322.984 55.88 322.837 55.88C322.617 56.0267 322.214 56.1733 321.627 56.32V71.17H322.397H324.157C324.744 71.17 325.294 71.17 325.807 71.17C326.394 71.0967 326.981 71.0233 327.567 70.95C328.667 70.8033 329.731 70.62 330.757 70.4C331.857 70.18 332.884 69.8867 333.837 69.52C334.717 69.1533 335.524 68.7133 336.257 68.2C336.624 67.98 336.917 67.76 337.137 67.54C337.431 67.2467 337.687 66.99 337.907 66.77C338.274 66.1833 338.494 65.6333 338.567 65.12C338.714 64.8267 338.787 64.5333 338.787 64.24V63.91V63.8ZM376.502 30.8H387.502V72.27H376.502V70.51L366.822 75.57V78.54H355.822V36.74H366.822V63.14L376.502 58.08V30.8ZM404.804 26.73V83.27H393.804V27.39L381.264 28.05L380.714 17.05L417.124 15.07L417.674 26.07L404.804 26.73ZM437.258 28.38C439.385 36.74 441.658 44.99 444.078 53.13C446.571 61.1967 449.285 69.2267 452.218 77.22L441.988 80.96C441.181 78.9067 440.411 76.89 439.678 74.91C439.018 72.8567 438.321 70.8033 437.588 68.75C435.975 68.75 434.361 68.75 432.748 68.75C431.208 68.75 429.631 68.7133 428.018 68.64L426.808 77.44L415.918 76.01L422.738 25.74L433.628 27.28L433.298 29.37L437.258 28.38ZM429.448 57.64C430.255 57.7133 431.025 57.75 431.758 57.75C432.491 57.75 433.261 57.75 434.068 57.75C433.481 55.99 432.931 54.23 432.418 52.47C431.905 50.71 431.391 48.95 430.878 47.19L429.448 57.64ZM482.41 30.69H493.41V80.41H482.41V73.7C482.043 72.8933 481.64 72.05 481.2 71.17C480.76 70.29 480.32 69.41 479.88 68.53L478.45 65.56L477.02 62.59C475.993 60.6833 475.003 58.74 474.05 56.76C473.096 54.78 472.106 52.8 471.08 50.82C470.786 50.2333 470.493 49.6467 470.2 49.06C469.906 48.4733 469.613 47.8867 469.32 47.3V83.49H458.32V18.59H469.32V22.55C469.76 23.5033 470.2 24.4567 470.64 25.41C471.153 26.3633 471.63 27.3167 472.07 28.27L473.5 31.24L475.04 34.1C475.993 36.08 476.946 38.06 477.9 40.04C478.853 42.02 479.843 43.9633 480.87 45.87C481.163 46.4567 481.42 47.0067 481.64 47.52C481.933 47.96 482.19 48.4367 482.41 48.95V30.69Z" fill="#208B71"/>
</svg>
